<svg id="6fd14163-8fb5-4b20-a8be-3d35da02812a" data-name="Layer 1" xmlns="http://www.w3.org/2000/svg" viewBox="0 0 64 64"><title>Artboard 1</title><g id="92caa953-7306-469e-be3e-e32165ec33c0" data-name="home"><path d="M56.11,20.72a.76.76,0,0,1-.45-.15l-6.91-5.12a.76.76,0,0,1-.31-.61V8.21a.76.76,0,0,1,.76-.76h6.91a.76.76,0,0,1,.76.76V20a.76.76,0,0,1-.76.76ZM50,14.47l5.4,4V9H50Z" style="fill:#414141"/><path d="M59,31.24a.75.75,0,0,1-.45-.15L31.91,11.64,5.29,30.09a.76.76,0,0,1-1-.16L.16,24.6a.76.76,0,0,1,.16-1.08l31.26-22a.76.76,0,0,1,.89,0l31.22,23.1a.76.76,0,0,1,.14,1.09L59.6,31A.76.76,0,0,1,59,31.24ZM31.92,9.95a.76.76,0,0,1,.45.15L58.88,29.44l3.28-4.06L32,3.07,1.84,24.3,5,28.43,31.49,10.08A.76.76,0,0,1,31.92,9.95Z" style="fill:#414141"/><path d="M56.11,62.62H38.73a.76.76,0,0,1-.76-.76V40.19H26V61.86a.76.76,0,0,1-.76.76H7.89a.76.76,0,0,1-.76-.76V27.37a.76.76,0,0,1,.33-.62l24-16.66a.76.76,0,0,1,.88,0L56.56,27.75a.76.76,0,0,1,.31.61v33.5A.76.76,0,0,1,56.11,62.62ZM39.49,61.1H55.35V28.75L31.91,11.64,8.65,27.76V61.1H24.51V39.43a.76.76,0,0,1,.76-.76H38.73a.76.76,0,0,1,.76.76Z" style="fill:#414141"/><path d="M38.73,62.62H25.27a.76.76,0,0,1-.76-.76V39.43a.76.76,0,0,1,.76-.76H38.73a.76.76,0,0,1,.76.76V61.86A.76.76,0,0,1,38.73,62.62ZM26,61.1H38V40.19H26Z" style="fill:#414141"/><path d="M28.64,52.52a1.88,1.88,0,1,1,1.88-1.88A1.88,1.88,0,0,1,28.64,52.52Zm0-2.24a.37.37,0,0,0-.37.36.36.36,0,1,0,.37-.36Z" style="fill:#414141"/><path d="M37.61,32.84H26.39a.76.76,0,0,1-.76-.76V20.87a.76.76,0,0,1,.76-.76H37.61a.76.76,0,0,1,.76.76V32.08A.76.76,0,0,1,37.61,32.84ZM27.15,31.32h9.7v-9.7h-9.7Z" style="fill:#414141"/><path d="M37.61,32.84H26.39a.76.76,0,0,1-.76-.76V20.87a.76.76,0,0,1,.76-.76H37.61a.76.76,0,0,1,.76.76V32.08A.76.76,0,0,1,37.61,32.84ZM27.15,31.32h9.7v-9.7h-9.7Z" style="fill:#414141"/><path d="M32,32.84a.76.76,0,0,1-.76-.76V20.87a.76.76,0,0,1,1.52,0V32.08A.76.76,0,0,1,32,32.84Z" style="fill:#414141"/><path d="M37.61,27.23H26.39a.76.76,0,0,1,0-1.52H37.61a.76.76,0,0,1,0,1.52Z" style="fill:#414141"/><polygon points="59.01 30.48 31.92 10.71 4.86 29.47 0.76 24.14 32.02 2.14 63.24 25.24 59.01 30.48" style="fill:#7ea8ad"/><path d="M59,31.24a.75.75,0,0,1-.45-.15L31.91,11.64,5.29,30.09a.76.76,0,0,1-1-.16L.16,24.6a.76.76,0,0,1,.16-1.08l31.26-22a.76.76,0,0,1,.89,0l31.22,23.1a.76.76,0,0,1,.14,1.09L59.6,31A.76.76,0,0,1,59,31.24ZM31.92,9.95a.76.76,0,0,1,.45.15L58.88,29.44l3.28-4.06L32,3.07,1.84,24.3,5,28.43,31.49,10.08A.76.76,0,0,1,31.92,9.95Z" style="fill:#414141"/><path d="M56.11,20.8a.76.76,0,0,1-.76-.76V9H50v6.09a.76.76,0,0,1-1.52,0V8.21a.76.76,0,0,1,.76-.76h6.91a.76.76,0,0,1,.76.76V20A.76.76,0,0,1,56.11,20.8Z" style="fill:#414141"/><polyline points="25.27 61.86 25.27 39.43 38.73 39.43 38.73 61.86" style="fill:#7ea8ad"/><path d="M38.73,62.62a.76.76,0,0,1-.76-.76V40.19H26V61.86a.76.76,0,0,1-1.52,0V39.43a.76.76,0,0,1,.76-.76H38.73a.76.76,0,0,1,.76.76V61.86A.76.76,0,0,1,38.73,62.62Z" style="fill:#414141"/><path d="M7.89,62.62a.76.76,0,0,1-.76-.76V27.78a.76.76,0,0,1,.34-.63l.07,0A.76.76,0,0,1,8.65,28V61.86A.76.76,0,0,1,7.89,62.62Z" style="fill:#414141"/><path d="M56.11,62.62a.76.76,0,0,1-.76-.76V29a.76.76,0,1,1,1.52,0v32.9A.76.76,0,0,1,56.11,62.62Z" style="fill:#414141"/><path d="M59.62,62.62H4.38a.76.76,0,0,1,0-1.52H59.62a.76.76,0,1,1,0,1.52Z" style="fill:#414141"/></g></svg>