<svg id="65f7ee84-f0ed-4f2b-ad41-40b9be0cd3fe" data-name="Layer 1" xmlns="http://www.w3.org/2000/svg" viewBox="0 0 37.91 58.93"><title>Digital</title><path d="M2,47.94H35.92V11H2ZM27.94,15a1,1,0,0,1,1-1h4a1,1,0,0,1,1,1v30a1,1,0,0,1-1,1h-4a1,1,0,0,1-1-1Zm-8,6.84c0-.55.55-.85,1.11-.85h4.18c.55,0,.7.3.7.85V44.48c0,.55-.15,1.47-.7,1.47H21.06c-.55,0-1.11-.92-1.11-1.47ZM12,29a1,1,0,0,1,1-1h4a1,1,0,0,1,1,1v16a1,1,0,0,1-1,1H13a1,1,0,0,1-1-1ZM5,35.51c0-.55.13-.55.68-.55H9.84c.55,0,1.13,0,1.13.55v9c0,.55-.58,1.47-1.13,1.47H5.66C5.11,45.95,5,45,5,44.48Z" style="fill:#fff"/><path d="M33.25,0H5.35C2.61,0,0,1.86,0,4.6V53.53a5.7,5.7,0,0,0,5.35,5.4H33.25c2.74,0,4.66-2.66,4.66-5.4V4.6A4.41,4.41,0,0,0,33.25,0Zm2.66,53.53c0,1.64-1,3.4-2.66,3.4H5.35A3.72,3.72,0,0,1,2,53.53V49.94H19.26a3,3,0,1,0,.08,0H35.92ZM19.3,51.93a1,1,0,1,1-1,1A1,1,0,0,1,19.3,51.93Zm16.62-4H2V11H35.92Zm0-39H2V4.6C2,3,3.71,2,5.35,2H33.25a2.43,2.43,0,0,1,2.66,2.6Z" style="fill:#404041"/><path d="M22.29,52.93a3,3,0,1,1-3-3H2v3.59a3.72,3.72,0,0,0,3.35,3.4H33.25c1.64,0,2.66-1.76,2.66-3.4V49.94H19.34A3,3,0,0,1,22.29,52.93Z" style="fill:#7ea8ad"/><path d="M33.25,2H5.35C3.71,2,2,3,2,4.6V9H35.92V4.6A2.43,2.43,0,0,0,33.25,2ZM23.55,6H15.05a1,1,0,0,1,0-2h8.49a1,1,0,0,1,0,2Z" style="fill:#7ea8ad"/><path d="M28.93,45.95h4a1,1,0,0,0,1-1V15a1,1,0,0,0-1-1h-4a1,1,0,0,0-1,1v30A1,1,0,0,0,28.93,45.95Zm1-30h2v28h-2Z" style="fill:#404041"/><rect x="29.93" y="15.98" width="2" height="27.97" style="fill:#7ea8ad"/><path d="M21.06,45.95h4.18c.55,0,.7-.92.7-1.47V21.82c0-.55-.15-.85-.7-.85H21.06c-.55,0-1.11.3-1.11.85V44.48C20,45,20.51,45.95,21.06,45.95Zm.89-23h2v21h-2Z" style="fill:#404041"/><path d="M23.55,4H15.05a1,1,0,0,0,0,2h8.49a1,1,0,0,0,0-2Z" style="fill:#404041"/><rect x="21.95" y="22.97" width="2" height="20.98" style="fill:#7ea8ad"/><circle cx="19.3" cy="52.93" r="1" style="fill:#7ea8ad"/><path d="M13,45.95h4a1,1,0,0,0,1-1V29a1,1,0,0,0-1-1H13a1,1,0,0,0-1,1v16A1,1,0,0,0,13,45.95Zm1-16h3v14H14Z" style="fill:#404041"/><rect x="13.97" y="29.96" width="2.99" height="13.98" style="fill:#7ea8ad"/><path d="M5.66,45.95H9.84c.55,0,1.13-.92,1.13-1.47v-9C11,35,10.39,35,9.84,35H5.66c-.55,0-.68,0-.68.55v9C5,45,5.11,45.95,5.66,45.95ZM7,37H9v7H7Z" style="fill:#404041"/><rect x="6.98" y="36.96" width="2" height="6.99" style="fill:#7ea8ad"/></svg>