<svg id="92ce090d-5195-4ab9-82b9-9c5cbb3a65da" data-name="Layer 1" xmlns="http://www.w3.org/2000/svg" viewBox="0 0 704 68"><title>Artboard 1</title><path d="M57.1,5.26c0,2.56-1.73,4.37-4.9,4.37H50.83v4.16a.27.27,0,0,1-.28.28H48.19a.27.27,0,0,1-.28-.28V1.18a.27.27,0,0,1,.28-.28h4C55.37.89,57.1,2.68,57.1,5.26Zm-2.79,0c0-1.39-1.13-1.79-2.17-1.79H50.83V7.05h1.32C53.18,7.05,54.31,6.66,54.31,5.26Z" style="fill:#5c6670"/><path d="M69.3,14.08H66.85a.3.3,0,0,1-.32-.23l-.68-2.09H61.24l-.68,2.09a.3.3,0,0,1-.32.23H57.79c-.21,0-.3-.13-.23-.32L62.12,1.12a.32.32,0,0,1,.32-.23h2.17a.37.37,0,0,1,.36.23l4.56,12.63C69.6,13.94,69.5,14.08,69.3,14.08ZM65,9.29,63.55,4.74,62.07,9.29Z" style="fill:#5c6670"/><path d="M82.91,1.18V13.79a.27.27,0,0,1-.28.28H79.95a.36.36,0,0,1-.34-.19L75,5.58v8.21a.27.27,0,0,1-.28.28H72.34a.27.27,0,0,1-.28-.28V1.18a.27.27,0,0,1,.28-.28H75a.36.36,0,0,1,.34.19L80,9.41V1.18a.27.27,0,0,1,.28-.28h2.35A.27.27,0,0,1,82.91,1.18Z" style="fill:#5c6670"/><path d="M94.78,1.18v2a.27.27,0,0,1-.28.28H91.7V13.79a.27.27,0,0,1-.28.28H89.06a.27.27,0,0,1-.28-.28V3.47H86a.27.27,0,0,1-.28-.28v-2A.27.27,0,0,1,86,.89H94.5A.27.27,0,0,1,94.78,1.18Z" style="fill:#5c6670"/><path d="M96,7.54a6.79,6.79,0,1,1,6.78,6.78A6.78,6.78,0,0,1,96,7.54Zm10.64,0a3.85,3.85,0,1,0-7.7,0,3.85,3.85,0,1,0,7.7,0Z" style="fill:#5c6670"/><path d="M123.21,1.18V13.79a.27.27,0,0,1-.28.28h-2.67a.36.36,0,0,1-.34-.19l-4.63-8.3v8.21a.27.27,0,0,1-.28.28h-2.35a.27.27,0,0,1-.28-.28V1.18a.27.27,0,0,1,.28-.28h2.66a.36.36,0,0,1,.34.19l4.65,8.32V1.18a.27.27,0,0,1,.28-.28h2.35A.27.27,0,0,1,123.21,1.18Z" style="fill:#5c6670"/><path d="M134,11.78v2a.27.27,0,0,1-.28.28h-7.08a.27.27,0,0,1-.28-.28V1.18a.27.27,0,0,1,.28-.28h7.06a.27.27,0,0,1,.28.28v2a.27.27,0,0,1-.28.28h-4.42V6.05h4.16a.27.27,0,0,1,.28.28v2a.27.27,0,0,1-.28.28h-4.16V11.5h4.44A.27.27,0,0,1,134,11.78Z" style="fill:#5c6670"/><path d="M151,1.18l-4.52,12.62c-.06.17-.15.28-.32.28h-2.22c-.17,0-.3-.11-.25-.28l3.86-10.62h-4.59a.27.27,0,0,1-.28-.28V1.18a.27.27,0,0,1,.28-.28h7.81C150.92.89,151,1,151,1.18Z" style="fill:#5c6670"/><path d="M161.59,9.41v1.71a.27.27,0,0,1-.28.28h-1.13v2.39a.27.27,0,0,1-.28.28h-2.26a.27.27,0,0,1-.28-.28V11.4h-4.84a.27.27,0,0,1-.28-.28V9.31a.63.63,0,0,1,.09-.36l4.91-7.87a.36.36,0,0,1,.34-.19h2.32a.27.27,0,0,1,.28.28V9.12h1.13A.27.27,0,0,1,161.59,9.41Zm-4.24-4.12-2.28,3.84h2.28Z" style="fill:#5c6670"/><path d="M172.59,10a4.38,4.38,0,0,1-8.76,0,5.2,5.2,0,0,1,1.24-3.18L169.63.69a.26.26,0,0,1,.4-.06l1.54,1.11a.25.25,0,0,1,.06.4l-2.79,3.69A4.24,4.24,0,0,1,172.59,10Zm-2.73,0a1.66,1.66,0,1,0-3.31,0,1.66,1.66,0,1,0,3.31,0Z" style="fill:#5c6670"/><path d="M182.77,1.18l-4.52,12.62c-.06.17-.15.28-.32.28h-2.22c-.17,0-.3-.11-.25-.28l3.86-10.62h-4.59a.27.27,0,0,1-.28-.28V1.18a.27.27,0,0,1,.28-.28h7.81C182.71.89,182.82,1,182.77,1.18Z" style="fill:#5c6670"/><path d="M202.42,12a.26.26,0,0,1,0,.4,6.39,6.39,0,0,1-4.65,1.94,6.79,6.79,0,1,1,0-13.58,6.45,6.45,0,0,1,4.65,1.92.26.26,0,0,1,0,.4L201,4.64a.26.26,0,0,1-.4,0,4.24,4.24,0,0,0-2.82-1.05A3.8,3.8,0,0,0,194,7.54a3.79,3.79,0,0,0,3.78,3.92,4.24,4.24,0,0,0,2.82-1.05.26.26,0,0,1,.4,0Z" style="fill:#5c6670"/><path d="M58.79,38.06a.25.25,0,0,1,0,.4,6.71,6.71,0,1,1-4.48-11.75,6.72,6.72,0,0,1,4.48,1.81.25.25,0,0,1,0,.4L58,29.7a.26.26,0,0,1-.39,0,5.1,5.1,0,0,0-3.35-1.28,5.08,5.08,0,0,0,0,10.15,5.1,5.1,0,0,0,3.35-1.28.26.26,0,0,1,.39,0Z" style="fill:#5c6670"/><path d="M75.13,27.14V39.76a.27.27,0,0,1-.28.28H73.66a.27.27,0,0,1-.28-.28V30.17l-4,9.66A.31.31,0,0,1,69,40H67.84a.3.3,0,0,1-.32-.21l-4-9.57v9.49a.27.27,0,0,1-.28.28H62a.27.27,0,0,1-.28-.28V27.14a.27.27,0,0,1,.28-.28h1.49a.34.34,0,0,1,.34.19l4.58,11L73,27a.34.34,0,0,1,.34-.19h1.53A.27.27,0,0,1,75.13,27.14Z" style="fill:#5c6670"/><path d="M87.59,27.2l-3.88,6.53v6a.27.27,0,0,1-.28.28H82.23a.27.27,0,0,1-.28-.28v-6L78.06,27.2c-.11-.19,0-.34.19-.34h1.26a.36.36,0,0,1,.34.19l3,5,3-5a.36.36,0,0,1,.34-.19H87.4C87.63,26.86,87.7,27,87.59,27.2Z" style="fill:#5c6670"/><path d="M99.87,40H98.42a.36.36,0,0,1-.34-.17L93.5,33.71l-1.22,1.36v4.69A.27.27,0,0,1,92,40H90.81a.27.27,0,0,1-.28-.28V27.14a.27.27,0,0,1,.28-.28H92a.27.27,0,0,1,.28.28v5.59l5-5.72a.41.41,0,0,1,.34-.15h1.54c.25,0,.3.17.15.34l-4.71,5.23L100,39.7C100.17,39.89,100.09,40,99.87,40Z" style="fill:#5c6670"/><path d="M102.35,30.95a1,1,0,1,1,1,1A1,1,0,0,1,102.35,30.95Zm0,8.3a1,1,0,1,1,1,1A1,1,0,0,1,102.35,39.25Z" style="fill:#5c6670"/><path d="M116.31,27.14V39.76A.27.27,0,0,1,116,40H114.9a.27.27,0,0,1-.28-.28V28.29h-1.49a.27.27,0,0,1-.28-.28v-.87a.27.27,0,0,1,.28-.28H116A.27.27,0,0,1,116.31,27.14Z" style="fill:#5c6670"/><path d="M129.06,33.51c0,4.37-2.11,6.78-5,6.78s-5-2.41-5-6.78,2.11-6.8,5-6.8S129.06,29.12,129.06,33.51Zm-8.44,0c0,3.18,1.26,5.23,3.41,5.23s3.39-2.05,3.39-5.23-1.26-5.25-3.39-5.25S120.63,30.31,120.63,33.51Z" style="fill:#5c6670"/><path d="M141.52,33.51c0,4.37-2.11,6.78-5,6.78s-5-2.41-5-6.78,2.11-6.8,5-6.8S141.52,29.12,141.52,33.51Zm-8.44,0c0,3.18,1.26,5.23,3.41,5.23s3.39-2.05,3.39-5.23-1.26-5.25-3.39-5.25S133.09,30.31,133.09,33.51Z" style="fill:#5c6670"/><path d="M144.89,39.44a3.9,3.9,0,0,1-.94,2.41.25.25,0,0,1-.15.06h-.23c-.09,0-.13-.06-.09-.15a3.15,3.15,0,0,0,.38-1.47,1,1,0,1,1,0-2.05A1.08,1.08,0,0,1,144.89,39.44Z" style="fill:#5c6670"/><path d="M161.59,36a4.27,4.27,0,1,1-8.53,0,5.09,5.09,0,0,1,1.15-3.09l4.59-6.23a.25.25,0,0,1,.4-.06l.75.56a.26.26,0,0,1,.06.4l-3.13,4.2a3.64,3.64,0,0,1,.43,0A4.21,4.21,0,0,1,161.59,36ZM160,36a2.64,2.64,0,1,0-5.27,0A2.64,2.64,0,1,0,160,36Z" style="fill:#5c6670"/><path d="M166,39.44a3.9,3.9,0,0,1-.94,2.41.25.25,0,0,1-.15.06h-.23c-.09,0-.13-.06-.09-.15a3.15,3.15,0,0,0,.38-1.47,1,1,0,1,1,0-2.05A1.08,1.08,0,0,1,166,39.44Z" style="fill:#5c6670"/><path d="M182.6,36.28a4.09,4.09,0,0,1-4.39,4,5,5,0,0,1-3.84-1.64.27.27,0,0,1,0-.4l.66-.6a.26.26,0,0,1,.41,0,3.55,3.55,0,0,0,2.71,1.09A2.57,2.57,0,0,0,181,36.22c0-1.45-1.26-2.39-3.18-2.45a.26.26,0,0,1-.28-.28V32.7a.27.27,0,0,1,.28-.3c1.9-.06,2.77-1.07,2.77-2.18a2.16,2.16,0,0,0-2.3-2,3.21,3.21,0,0,0-2.39,1.11.26.26,0,0,1-.41,0l-.64-.62a.27.27,0,0,1,0-.4,4.55,4.55,0,0,1,3.48-1.62,3.65,3.65,0,0,1,3.82,3.46A3.32,3.32,0,0,1,180.3,33,3.59,3.59,0,0,1,182.6,36.28Z" style="fill:#5c6670"/><path d="M193.46,36a4.27,4.27,0,1,1-8.53,0,5.09,5.09,0,0,1,1.15-3.09l4.59-6.23a.25.25,0,0,1,.4-.06l.75.56a.26.26,0,0,1,.06.4l-3.13,4.2a3.64,3.64,0,0,1,.43,0A4.21,4.21,0,0,1,193.46,36Zm-1.64,0a2.64,2.64,0,1,0-5.27,0,2.64,2.64,0,1,0,5.27,0Z" style="fill:#5c6670"/><path d="M197.88,39.44a3.9,3.9,0,0,1-.94,2.41.25.25,0,0,1-.15.06h-.23c-.09,0-.13-.06-.09-.15a3.15,3.15,0,0,0,.38-1.47,1,1,0,1,1,0-2.05A1.08,1.08,0,0,1,197.88,39.44Z" style="fill:#5c6670"/><path d="M216.2,33.51c0,4.37-2.11,6.78-5,6.78s-5-2.41-5-6.78,2.11-6.8,5-6.8S216.2,29.12,216.2,33.51Zm-8.44,0c0,3.18,1.26,5.23,3.41,5.23s3.39-2.05,3.39-5.23-1.26-5.25-3.39-5.25S207.76,30.31,207.76,33.51Z" style="fill:#5c6670"/><path d="M56.33,66H55a.36.36,0,0,1-.34-.19l-3.11-4.71H49.75v4.61a.27.27,0,0,1-.28.28H48.29a.27.27,0,0,1-.28-.28V53.11a.27.27,0,0,1,.28-.28h3.63c2.92,0,4.5,1.75,4.5,4.14a3.84,3.84,0,0,1-3.07,4l3.16,4.73C56.65,65.87,56.55,66,56.33,66Zm-6.57-6.5h2.09c1.56,0,2.88-.68,2.88-2.54s-1.32-2.54-2.88-2.54H49.75Z" style="fill:#5c6670"/><path d="M71.5,59.34v.73a5.81,5.81,0,0,1-6,6.18,6.79,6.79,0,1,1,4.46-11.77.25.25,0,0,1,0,.4l-.75.79a.26.26,0,0,1-.4,0,5.1,5.1,0,0,0-3.35-1.28,5.08,5.08,0,0,0,0,10.15,4,4,0,0,0,4.33-3.9H65.66a.27.27,0,0,1-.28-.28v-1a.27.27,0,0,1,.28-.28h5.55A.27.27,0,0,1,71.5,59.34Z" style="fill:#5c6670"/><path d="M83.49,62.17c0,2.49-1.54,3.84-4.73,3.84h-4.1a.27.27,0,0,1-.28-.28V53.11a.27.27,0,0,1,.28-.28h4.12c2.77,0,3.86,1.6,3.86,3.2a2.87,2.87,0,0,1-1.86,2.86A3.32,3.32,0,0,1,83.49,62.17Zm-4.86-7.74h-2.5v3.82h2.5c1.43,0,2.32-.73,2.32-2.07S80,54.43,78.63,54.43Zm3.07,7.63c0-1.41-.88-2.3-3-2.3H76.13v4.65h2.62C80.64,64.41,81.7,63.71,81.7,62.05Z" style="fill:#5c6670"/><path d="M85.82,56.91a1,1,0,1,1,1,1A1,1,0,0,1,85.82,56.91Zm0,8.3a1,1,0,1,1,1,1A1,1,0,0,1,85.82,65.22Z" style="fill:#5c6670"/><path d="M106.38,59.47c0,4.37-2.11,6.78-5,6.78s-5-2.41-5-6.78,2.11-6.8,5-6.8S106.38,55.09,106.38,59.47Zm-8.44,0c0,3.18,1.26,5.23,3.41,5.23s3.39-2.05,3.39-5.23-1.26-5.25-3.39-5.25S97.94,56.27,97.94,59.47Z" style="fill:#5c6670"/><path d="M109.75,65.4a3.9,3.9,0,0,1-.94,2.41.25.25,0,0,1-.15.06h-.23c-.09,0-.13-.06-.09-.15a3.15,3.15,0,0,0,.38-1.47,1,1,0,1,1,0-2.05A1.08,1.08,0,0,1,109.75,65.4Z" style="fill:#5c6670"/><path d="M121.47,53.11V65.72a.27.27,0,0,1-.28.28h-1.13a.27.27,0,0,1-.28-.28V54.26h-1.49A.27.27,0,0,1,118,54v-.87a.27.27,0,0,1,.28-.28h2.9A.27.27,0,0,1,121.47,53.11Z" style="fill:#5c6670"/><path d="M132.6,61.94a4.27,4.27,0,1,1-8.53,0,5.09,5.09,0,0,1,1.15-3.09l4.59-6.23a.25.25,0,0,1,.4-.06l.75.56a.26.26,0,0,1,.06.4l-3.13,4.2a3.74,3.74,0,0,1,.43,0A4.21,4.21,0,0,1,132.6,61.94Zm-1.64,0a2.64,2.64,0,1,0-5.27,0,2.64,2.64,0,1,0,5.27,0Z" style="fill:#5c6670"/><path d="M138,53.11V65.72a.27.27,0,0,1-.28.28h-1.13a.27.27,0,0,1-.28-.28V54.26h-1.49a.27.27,0,0,1-.28-.28v-.87a.27.27,0,0,1,.28-.28h2.9A.27.27,0,0,1,138,53.11Z" style="fill:#5c6670"/><path d="M142.8,65.4a3.9,3.9,0,0,1-.94,2.41.25.25,0,0,1-.15.06h-.23c-.09,0-.13-.06-.09-.15a3.15,3.15,0,0,0,.38-1.47,1,1,0,1,1,0-2.05A1.08,1.08,0,0,1,142.8,65.4Z" style="fill:#5c6670"/><path d="M154.53,53.11V65.72a.27.27,0,0,1-.28.28h-1.13a.27.27,0,0,1-.28-.28V54.26h-1.49a.27.27,0,0,1-.28-.28v-.87a.27.27,0,0,1,.28-.28h2.9A.27.27,0,0,1,154.53,53.11Z" style="fill:#5c6670"/><path d="M165.13,53.11l-4.8,12.62A.36.36,0,0,1,160,66H158.9c-.17,0-.28-.11-.23-.28l4.42-11.47H157.5a.27.27,0,0,1-.28-.28v-.87a.27.27,0,0,1,.28-.28h7.4C165.07,52.83,165.19,52.94,165.13,53.11Z" style="fill:#5c6670"/><path d="M175.69,61.69a4.37,4.37,0,0,1-4.56,4.54,4.5,4.5,0,0,1-3.67-1.79.24.24,0,0,1,.06-.38l.77-.58a.27.27,0,0,1,.42,0,3.06,3.06,0,0,0,2.45,1.17,2.94,2.94,0,1,0-2.28-4.8.27.27,0,0,1-.38.09l-.87-.34a.3.3,0,0,1-.19-.36l1.64-6.21a.29.29,0,0,1,.3-.25h5.25a.27.27,0,0,1,.28.28V54a.27.27,0,0,1-.28.28h-4.33l-1,3.67a3.65,3.65,0,0,1,2.05-.58A4.3,4.3,0,0,1,175.69,61.69Z" style="fill:#5c6670"/><rect x="0.04" y="0.93" width="32.57" height="65.13" style="fill:#00a1af"/><rect x="247.5" y="0.93" width="32.57" height="65.13" style="fill:#e9e65a"/><path d="M304.56,4.83c0,2.56-1.73,4.37-4.9,4.37h-1.37v4.16a.27.27,0,0,1-.28.28h-2.35a.27.27,0,0,1-.28-.28V.74a.27.27,0,0,1,.28-.28h4C302.83.46,304.56,2.25,304.56,4.83Zm-2.79,0c0-1.39-1.13-1.79-2.17-1.79h-1.32V6.62h1.32C300.64,6.62,301.77,6.22,301.77,4.83Z" style="fill:#5c6670"/><path d="M316.76,13.64h-2.45a.3.3,0,0,1-.32-.23l-.68-2.09H308.7L308,13.41a.3.3,0,0,1-.32.23h-2.45c-.21,0-.3-.13-.23-.32L309.58.69a.32.32,0,0,1,.32-.23h2.17a.37.37,0,0,1,.36.23L317,13.32C317.06,13.51,317,13.64,316.76,13.64ZM312.5,8.86,311,4.3l-1.49,4.56Z" style="fill:#5c6670"/><path d="M330.37.74V13.36a.27.27,0,0,1-.28.28h-2.67a.36.36,0,0,1-.34-.19l-4.63-8.3v8.21a.27.27,0,0,1-.28.28H319.8a.27.27,0,0,1-.28-.28V.74a.27.27,0,0,1,.28-.28h2.66a.36.36,0,0,1,.34.19L327.45,9V.74a.27.27,0,0,1,.28-.28h2.35A.27.27,0,0,1,330.37.74Z" style="fill:#5c6670"/><path d="M342.24.74v2A.27.27,0,0,1,342,3h-2.81V13.36a.27.27,0,0,1-.28.28h-2.35a.27.27,0,0,1-.28-.28V3h-2.81a.27.27,0,0,1-.28-.28v-2a.27.27,0,0,1,.28-.28H342A.27.27,0,0,1,342.24.74Z" style="fill:#5c6670"/><path d="M343.47,7.11a6.79,6.79,0,1,1,6.78,6.78A6.78,6.78,0,0,1,343.47,7.11Zm10.64,0a3.85,3.85,0,1,0-7.7,0,3.85,3.85,0,1,0,7.7,0Z" style="fill:#5c6670"/><path d="M370.67.74V13.36a.27.27,0,0,1-.28.28h-2.67a.36.36,0,0,1-.34-.19l-4.63-8.3v8.21a.27.27,0,0,1-.28.28h-2.35a.27.27,0,0,1-.28-.28V.74a.27.27,0,0,1,.28-.28h2.66a.36.36,0,0,1,.34.19L367.75,9V.74A.27.27,0,0,1,368,.46h2.35A.27.27,0,0,1,370.67.74Z" style="fill:#5c6670"/><path d="M381.47,11.34v2a.27.27,0,0,1-.28.28h-7.08a.27.27,0,0,1-.28-.28V.74a.27.27,0,0,1,.28-.28h7.06a.27.27,0,0,1,.28.28v2a.27.27,0,0,1-.28.28h-4.42V5.62h4.16a.27.27,0,0,1,.28.28v2a.27.27,0,0,1-.28.28h-4.16v2.86h4.44A.27.27,0,0,1,381.47,11.34Z" style="fill:#5c6670"/><path d="M398.89,9.86c0,2.22-1.69,4-4.58,4a5.3,5.3,0,0,1-4-1.64.27.27,0,0,1,0-.4l1.38-1.3a.27.27,0,0,1,.41,0,2.89,2.89,0,0,0,2,.75,1.75,1.75,0,0,0,2-1.68c0-.68-.45-1.6-2.32-1.66a.26.26,0,0,1-.28-.28V6.13a.26.26,0,0,1,.3-.28c1.85-.06,2.15-.92,2.15-1.62a1.51,1.51,0,0,0-1.58-1.34,2.43,2.43,0,0,0-1.83.73.26.26,0,0,1-.41,0l-1.36-1.3a.27.27,0,0,1,0-.4A4.87,4.87,0,0,1,394.48.31a3.75,3.75,0,0,1,4,3.67,3.34,3.34,0,0,1-1.54,2.73A3.46,3.46,0,0,1,398.89,9.86Z" style="fill:#5c6670"/><path d="M410.56,9.59a4.64,4.64,0,0,1-9.25,0,3.73,3.73,0,0,1,2.13-3.45,3.18,3.18,0,0,1-1.26-2.43,3.78,3.78,0,0,1,7.53,0,3.14,3.14,0,0,1-1.28,2.43A3.73,3.73,0,0,1,410.56,9.59Zm-2.9-.09a1.72,1.72,0,0,0-3.45,0,1.72,1.72,0,1,0,3.45,0Zm-1.71-4.37a1.28,1.28,0,0,0,0-2.56,1.25,1.25,0,0,0-1.28,1.26A1.26,1.26,0,0,0,405.94,5.13Z" style="fill:#5c6670"/><path d="M421.53,9.57a4.38,4.38,0,0,1-8.76,0A5.2,5.2,0,0,1,414,6.39L418.58.25A.26.26,0,0,1,419,.2l1.54,1.11a.25.25,0,0,1,.06.4l-2.79,3.69A4.24,4.24,0,0,1,421.53,9.57Zm-2.73,0a1.66,1.66,0,1,0-3.31,0,1.66,1.66,0,1,0,3.31,0Z" style="fill:#5c6670"/><path d="M441.35,11.55a.26.26,0,0,1,0,.4,6.39,6.39,0,0,1-4.65,1.94,6.79,6.79,0,1,1,0-13.58,6.45,6.45,0,0,1,4.65,1.92.26.26,0,0,1,0,.4L439.9,4.21a.26.26,0,0,1-.4,0,4.24,4.24,0,0,0-2.82-1.05,3.8,3.8,0,0,0-3.78,3.94A3.79,3.79,0,0,0,436.68,11,4.24,4.24,0,0,0,439.51,10a.26.26,0,0,1,.4,0Z" style="fill:#5c6670"/><path d="M306.25,37.63a.25.25,0,0,1,0,.4,6.71,6.71,0,1,1-4.48-11.75,6.72,6.72,0,0,1,4.48,1.81.25.25,0,0,1,0,.4l-.75.79a.26.26,0,0,1-.39,0A5.1,5.1,0,0,0,301.75,28a5.08,5.08,0,0,0,0,10.15,5.1,5.1,0,0,0,3.35-1.28.26.26,0,0,1,.39,0Z" style="fill:#5c6670"/><path d="M322.59,26.71V39.32a.27.27,0,0,1-.28.28h-1.19a.27.27,0,0,1-.28-.28V29.74l-4,9.66a.31.31,0,0,1-.32.21h-1.17a.3.3,0,0,1-.32-.21l-4-9.57v9.49a.27.27,0,0,1-.28.28h-1.19a.27.27,0,0,1-.28-.28V26.71a.27.27,0,0,1,.28-.28H311a.34.34,0,0,1,.34.19l4.58,11,4.54-11a.34.34,0,0,1,.34-.19h1.53A.27.27,0,0,1,322.59,26.71Z" style="fill:#5c6670"/><path d="M335.05,26.76l-3.88,6.53v6a.27.27,0,0,1-.28.28h-1.21a.27.27,0,0,1-.28-.28v-6l-3.88-6.52c-.11-.19,0-.34.19-.34H327a.36.36,0,0,1,.34.19l3,5,3-5a.36.36,0,0,1,.34-.19h1.26C335.09,26.43,335.17,26.58,335.05,26.76Z" style="fill:#5c6670"/><path d="M347.33,39.61h-1.45a.36.36,0,0,1-.34-.17L341,33.28l-1.22,1.36v4.69a.27.27,0,0,1-.28.28h-1.19a.27.27,0,0,1-.28-.28V26.71a.27.27,0,0,1,.28-.28h1.19a.27.27,0,0,1,.28.28V32.3l5-5.72a.41.41,0,0,1,.34-.15h1.54c.25,0,.3.17.15.34L342.11,32l5.39,7.27C347.63,39.46,347.55,39.61,347.33,39.61Z" style="fill:#5c6670"/><path d="M349.81,30.51a1,1,0,1,1,1,1A1,1,0,0,1,349.81,30.51Zm0,8.3a1,1,0,1,1,1,1A1,1,0,0,1,349.81,38.82Z" style="fill:#5c6670"/><path d="M363.78,26.71V39.32a.27.27,0,0,1-.28.28h-1.13a.27.27,0,0,1-.28-.28V27.86h-1.49a.27.27,0,0,1-.28-.28v-.87a.27.27,0,0,1,.28-.28h2.9A.27.27,0,0,1,363.78,26.71Z" style="fill:#5c6670"/><path d="M370.21,26.71V39.32a.27.27,0,0,1-.28.28H368.8a.27.27,0,0,1-.28-.28V27.86H367a.27.27,0,0,1-.28-.28v-.87a.27.27,0,0,1,.28-.28h2.9A.27.27,0,0,1,370.21,26.71Z" style="fill:#5c6670"/><path d="M375,39a3.9,3.9,0,0,1-.94,2.41.25.25,0,0,1-.15.06h-.23c-.09,0-.13-.06-.09-.15a3.15,3.15,0,0,0,.38-1.47,1,1,0,1,1,0-2.05A1.08,1.08,0,0,1,375,39Z" style="fill:#5c6670"/><path d="M386.72,26.71V39.32a.27.27,0,0,1-.28.28h-1.13a.27.27,0,0,1-.28-.28V27.86h-1.49a.27.27,0,0,1-.28-.28v-.87a.27.27,0,0,1,.28-.28h2.9A.27.27,0,0,1,386.72,26.71Z" style="fill:#5c6670"/><path d="M391.5,39a3.9,3.9,0,0,1-.94,2.41.25.25,0,0,1-.15.06h-.23c-.09,0-.13-.06-.09-.15a3.15,3.15,0,0,0,.38-1.47,1,1,0,1,1,0-2.05A1.08,1.08,0,0,1,391.5,39Z" style="fill:#5c6670"/><path d="M407.68,26.71l-4.8,12.62a.36.36,0,0,1-.34.28h-1.09c-.17,0-.28-.11-.23-.28l4.42-11.47h-5.59a.27.27,0,0,1-.28-.28v-.87a.27.27,0,0,1,.28-.28h7.4C407.62,26.43,407.73,26.54,407.68,26.71Z" style="fill:#5c6670"/><path d="M418.31,30.59a5.09,5.09,0,0,1-1.15,3.09l-4.59,6.23a.25.25,0,0,1-.4.06l-.75-.56a.26.26,0,0,1-.06-.4l3.13-4.2a3.72,3.72,0,0,1-.43,0,4.21,4.21,0,0,1-4.27-4.26,4.26,4.26,0,1,1,8.53,0Zm-1.62,0a2.64,2.64,0,1,0-5.27,0,2.64,2.64,0,1,0,5.27,0Z" style="fill:#5c6670"/><path d="M420.74,39a3.9,3.9,0,0,1-.94,2.41.25.25,0,0,1-.15.06h-.23c-.09,0-.13-.06-.09-.15a3.15,3.15,0,0,0,.38-1.47,1,1,0,1,1,0-2.05A1.08,1.08,0,0,1,420.74,39Z" style="fill:#5c6670"/><path d="M439.06,33.07c0,4.37-2.11,6.78-5,6.78s-5-2.41-5-6.78,2.11-6.8,5-6.8S439.06,28.69,439.06,33.07Zm-8.44,0c0,3.18,1.26,5.23,3.41,5.23s3.39-2.05,3.39-5.23-1.26-5.25-3.39-5.25S430.62,29.87,430.62,33.07Z" style="fill:#5c6670"/><path d="M303.79,65.57h-1.3a.36.36,0,0,1-.34-.19L299,60.68h-1.83v4.61a.27.27,0,0,1-.28.28h-1.19a.27.27,0,0,1-.28-.28V52.67a.27.27,0,0,1,.28-.28h3.63c2.92,0,4.5,1.75,4.5,4.14a3.84,3.84,0,0,1-3.07,4L304,65.23C304.11,65.44,304,65.57,303.79,65.57Zm-6.57-6.5h2.09c1.56,0,2.88-.68,2.88-2.54S300.87,54,299.3,54h-2.09Z" style="fill:#5c6670"/><path d="M319,58.91v.73a5.81,5.81,0,0,1-6,6.18A6.79,6.79,0,1,1,317.4,54a.25.25,0,0,1,0,.4l-.75.79a.26.26,0,0,1-.4,0A5.1,5.1,0,0,0,312.92,54a5.08,5.08,0,0,0,0,10.15,4,4,0,0,0,4.33-3.9h-4.14a.27.27,0,0,1-.28-.28v-1a.27.27,0,0,1,.28-.28h5.55A.27.27,0,0,1,319,58.91Z" style="fill:#5c6670"/><path d="M330.95,61.73c0,2.49-1.54,3.84-4.73,3.84h-4.1a.27.27,0,0,1-.28-.28V52.67a.27.27,0,0,1,.28-.28h4.12c2.77,0,3.86,1.6,3.86,3.2a2.87,2.87,0,0,1-1.86,2.86A3.32,3.32,0,0,1,330.95,61.73ZM326.09,54h-2.5v3.82h2.5c1.43,0,2.32-.73,2.32-2.07S327.5,54,326.09,54Zm3.07,7.63c0-1.41-.88-2.3-3-2.3h-2.62V64h2.62C328.11,64,329.16,63.27,329.16,61.62Z" style="fill:#5c6670"/><path d="M333.28,56.48a1,1,0,1,1,1,1A1,1,0,0,1,333.28,56.48Zm0,8.3a1,1,0,1,1,1,1A1,1,0,0,1,333.28,64.78Z" style="fill:#5c6670"/><path d="M351.94,64.42v.87a.27.27,0,0,1-.28.28h-7.49a.27.27,0,0,1-.28-.28V64.14l2.94-3c2.37-2.43,3.48-3.48,3.48-4.91a2.33,2.33,0,0,0-2.56-2.43,3.63,3.63,0,0,0-2.62,1.15.27.27,0,0,1-.42,0l-.66-.6a.27.27,0,0,1,0-.4,5,5,0,0,1,3.73-1.69,3.91,3.91,0,0,1,4.18,4c0,1.73-1.28,3.14-3.56,5.46L346,64.14h5.69A.27.27,0,0,1,351.94,64.42Z" style="fill:#5c6670"/><path d="M362.74,61.81a4.09,4.09,0,0,1-4.39,4,5,5,0,0,1-3.84-1.64.27.27,0,0,1,0-.4l.66-.6a.26.26,0,0,1,.41,0,3.55,3.55,0,0,0,2.71,1.09,2.57,2.57,0,0,0,2.79-2.52c0-1.45-1.26-2.39-3.18-2.45a.26.26,0,0,1-.28-.28v-.79a.27.27,0,0,1,.28-.3c1.9-.06,2.77-1.07,2.77-2.18a2.16,2.16,0,0,0-2.3-2A3.21,3.21,0,0,0,356,54.88a.26.26,0,0,1-.41,0l-.64-.62a.27.27,0,0,1,0-.4,4.55,4.55,0,0,1,3.48-1.62,3.65,3.65,0,0,1,3.82,3.46,3.32,3.32,0,0,1-1.79,2.82A3.59,3.59,0,0,1,362.74,61.81Z" style="fill:#5c6670"/><path d="M373.11,61.81a4.09,4.09,0,0,1-4.39,4,5,5,0,0,1-3.84-1.64.27.27,0,0,1,0-.4l.66-.6a.26.26,0,0,1,.41,0,3.55,3.55,0,0,0,2.71,1.09,2.57,2.57,0,0,0,2.79-2.52c0-1.45-1.26-2.39-3.18-2.45A.26.26,0,0,1,368,59v-.79a.27.27,0,0,1,.28-.3c1.9-.06,2.77-1.07,2.77-2.18a2.16,2.16,0,0,0-2.3-2,3.21,3.21,0,0,0-2.39,1.11.26.26,0,0,1-.41,0l-.64-.62a.27.27,0,0,1,0-.4,4.55,4.55,0,0,1,3.48-1.62,3.65,3.65,0,0,1,3.82,3.46,3.32,3.32,0,0,1-1.79,2.82A3.59,3.59,0,0,1,373.11,61.81Z" style="fill:#5c6670"/><path d="M377.63,65a3.9,3.9,0,0,1-.94,2.41.25.25,0,0,1-.15.06h-.23c-.09,0-.13-.06-.09-.15a3.15,3.15,0,0,0,.38-1.47,1,1,0,1,1,0-2.05A1.08,1.08,0,0,1,377.63,65Z" style="fill:#5c6670"/><path d="M394,64.42v.87a.27.27,0,0,1-.28.28h-7.49a.27.27,0,0,1-.28-.28V64.14l2.94-3c2.37-2.43,3.48-3.48,3.48-4.91a2.33,2.33,0,0,0-2.56-2.43,3.63,3.63,0,0,0-2.62,1.15.27.27,0,0,1-.42,0l-.66-.6a.27.27,0,0,1,0-.4,5,5,0,0,1,3.73-1.69,3.91,3.91,0,0,1,4.18,4c0,1.73-1.28,3.14-3.56,5.46l-2.41,2.49h5.69A.27.27,0,0,1,394,64.42Z" style="fill:#5c6670"/><path d="M404.85,61.81a4.09,4.09,0,0,1-4.39,4,5,5,0,0,1-3.84-1.64.27.27,0,0,1,0-.4l.66-.6a.26.26,0,0,1,.41,0,3.55,3.55,0,0,0,2.71,1.09,2.57,2.57,0,0,0,2.79-2.52c0-1.45-1.26-2.39-3.18-2.45a.26.26,0,0,1-.28-.28v-.79a.27.27,0,0,1,.28-.3c1.9-.06,2.77-1.07,2.77-2.18a2.16,2.16,0,0,0-2.3-2,3.21,3.21,0,0,0-2.39,1.11.26.26,0,0,1-.41,0l-.64-.62a.27.27,0,0,1,0-.4,4.55,4.55,0,0,1,3.48-1.62,3.65,3.65,0,0,1,3.82,3.46,3.32,3.32,0,0,1-1.79,2.82A3.59,3.59,0,0,1,404.85,61.81Z" style="fill:#5c6670"/><path d="M417.33,59c0,4.37-2.11,6.78-5,6.78s-5-2.41-5-6.78,2.11-6.8,5-6.8S417.33,54.65,417.33,59Zm-8.44,0c0,3.18,1.26,5.23,3.41,5.23s3.39-2.05,3.39-5.23-1.26-5.25-3.39-5.25S408.9,55.84,408.9,59Z" style="fill:#5c6670"/><path d="M420.7,65a3.9,3.9,0,0,1-.94,2.41.25.25,0,0,1-.15.06h-.23c-.09,0-.13-.06-.09-.15a3.15,3.15,0,0,0,.38-1.47,1,1,0,1,1,0-2.05A1.08,1.08,0,0,1,420.7,65Z" style="fill:#5c6670"/><path d="M437.44,56.55a5.09,5.09,0,0,1-1.15,3.09l-4.59,6.23a.25.25,0,0,1-.4.06l-.75-.56a.26.26,0,0,1-.06-.4l3.13-4.2a3.72,3.72,0,0,1-.43,0,4.21,4.21,0,0,1-4.27-4.26,4.26,4.26,0,1,1,8.53,0Zm-1.62,0a2.64,2.64,0,1,0-5.27,0,2.64,2.64,0,1,0,5.27,0Z" style="fill:#5c6670"/><path d="M449.81,59c0,4.37-2.11,6.78-5,6.78s-5-2.41-5-6.78,2.11-6.8,5-6.8S449.81,54.65,449.81,59Zm-8.44,0c0,3.18,1.26,5.23,3.41,5.23s3.39-2.05,3.39-5.23-1.26-5.25-3.39-5.25S441.37,55.84,441.37,59Z" style="fill:#5c6670"/><rect x="481.35" y="0.93" width="32.57" height="65.13" style="fill:#5c6670"/><path d="M538.41,5c0,2.56-1.73,4.37-4.9,4.37h-1.37v4.16a.27.27,0,0,1-.28.28H529.5a.27.27,0,0,1-.28-.28V.91a.27.27,0,0,1,.28-.28h4C536.68.63,538.41,2.42,538.41,5Zm-2.79,0c0-1.39-1.13-1.79-2.17-1.79h-1.32V6.79h1.32C534.49,6.79,535.62,6.39,535.62,5Z" style="fill:#5c6670"/><path d="M550.61,13.81h-2.45a.3.3,0,0,1-.32-.23l-.68-2.09h-4.61l-.68,2.09a.3.3,0,0,1-.32.23H539.1c-.21,0-.3-.13-.23-.32L543.43.86a.32.32,0,0,1,.32-.23h2.17a.37.37,0,0,1,.36.23l4.56,12.63C550.91,13.68,550.81,13.81,550.61,13.81ZM546.35,9l-1.49-4.56L543.38,9Z" style="fill:#5c6670"/><path d="M564.22.91V13.53a.27.27,0,0,1-.28.28h-2.67a.36.36,0,0,1-.34-.19l-4.63-8.3v8.21a.27.27,0,0,1-.28.28h-2.35a.27.27,0,0,1-.28-.28V.91a.27.27,0,0,1,.28-.28h2.66a.36.36,0,0,1,.34.19l4.65,8.32V.91a.27.27,0,0,1,.28-.28h2.35A.27.27,0,0,1,564.22.91Z" style="fill:#5c6670"/><path d="M576.09.91v2a.27.27,0,0,1-.28.28H573V13.53a.27.27,0,0,1-.28.28h-2.35a.27.27,0,0,1-.28-.28V3.21h-2.81a.27.27,0,0,1-.28-.28v-2a.27.27,0,0,1,.28-.28h8.53A.27.27,0,0,1,576.09.91Z" style="fill:#5c6670"/><path d="M577.32,7.28a6.79,6.79,0,1,1,6.78,6.78A6.78,6.78,0,0,1,577.32,7.28Zm10.64,0a3.85,3.85,0,1,0-7.7,0,3.85,3.85,0,1,0,7.7,0Z" style="fill:#5c6670"/><path d="M604.52.91V13.53a.27.27,0,0,1-.28.28h-2.67a.36.36,0,0,1-.34-.19l-4.63-8.3v8.21a.27.27,0,0,1-.28.28H594a.27.27,0,0,1-.28-.28V.91A.27.27,0,0,1,594,.63h2.66a.36.36,0,0,1,.34.19l4.65,8.32V.91a.27.27,0,0,1,.28-.28h2.35A.27.27,0,0,1,604.52.91Z" style="fill:#5c6670"/><path d="M615.32,11.51v2a.27.27,0,0,1-.28.28H608a.27.27,0,0,1-.28-.28V.91A.27.27,0,0,1,608,.63H615a.27.27,0,0,1,.28.28v2a.27.27,0,0,1-.28.28H610.6V5.79h4.16a.27.27,0,0,1,.28.28v2a.27.27,0,0,1-.28.28H610.6v2.86H615A.27.27,0,0,1,615.32,11.51Z" style="fill:#5c6670"/><path d="M633.45,9.14v1.71a.27.27,0,0,1-.28.28H632v2.39a.27.27,0,0,1-.28.28H629.5a.27.27,0,0,1-.28-.28V11.14h-4.84a.27.27,0,0,1-.28-.28V9a.63.63,0,0,1,.09-.36L629.1.82a.36.36,0,0,1,.34-.19h2.32a.27.27,0,0,1,.28.28V8.86h1.13A.27.27,0,0,1,633.45,9.14ZM629.22,5l-2.28,3.84h2.28Z" style="fill:#5c6670"/><path d="M644.56,10c0,2.22-1.69,4-4.58,4a5.3,5.3,0,0,1-4-1.64.27.27,0,0,1,0-.4l1.38-1.3a.27.27,0,0,1,.41,0,2.89,2.89,0,0,0,2,.75,1.75,1.75,0,0,0,2-1.68c0-.68-.45-1.6-2.32-1.66a.26.26,0,0,1-.28-.28V6.3a.26.26,0,0,1,.3-.28c1.85-.06,2.15-.92,2.15-1.62A1.51,1.51,0,0,0,640,3.06a2.43,2.43,0,0,0-1.83.73.26.26,0,0,1-.41,0l-1.36-1.3a.27.27,0,0,1,0-.4A4.87,4.87,0,0,1,640.15.48a3.75,3.75,0,0,1,4,3.67,3.34,3.34,0,0,1-1.54,2.73A3.46,3.46,0,0,1,644.56,10Z" style="fill:#5c6670"/><path d="M651.82.91V13.53a.27.27,0,0,1-.28.28h-2.26a.27.27,0,0,1-.28-.28V2.91h-1.83a.27.27,0,0,1-.28-.28V.91a.27.27,0,0,1,.28-.28h4.37A.27.27,0,0,1,651.82.91Z" style="fill:#5c6670"/><path d="M671.91,11.72a.26.26,0,0,1,0,.4,6.39,6.39,0,0,1-4.65,1.94,6.79,6.79,0,1,1,0-13.58,6.45,6.45,0,0,1,4.65,1.92.26.26,0,0,1,0,.4l-1.45,1.58a.26.26,0,0,1-.4,0,4.24,4.24,0,0,0-2.82-1.05,3.8,3.8,0,0,0-3.78,3.94,3.79,3.79,0,0,0,3.78,3.92,4.24,4.24,0,0,0,2.82-1.05.26.26,0,0,1,.4,0Z" style="fill:#5c6670"/><path d="M540.1,37.8a.25.25,0,0,1,0,.4,6.71,6.71,0,1,1-4.48-11.75,6.72,6.72,0,0,1,4.48,1.81.25.25,0,0,1,0,.4l-.75.79a.26.26,0,0,1-.4,0,5.1,5.1,0,0,0-3.35-1.28,5.08,5.08,0,0,0,0,10.15A5.1,5.1,0,0,0,539,37a.26.26,0,0,1,.4,0Z" style="fill:#5c6670"/><path d="M556.44,26.88V39.49a.27.27,0,0,1-.28.28H555a.27.27,0,0,1-.28-.28V29.91l-4,9.66a.31.31,0,0,1-.32.21h-1.17a.31.31,0,0,1-.32-.21l-4-9.57v9.49a.27.27,0,0,1-.28.28h-1.19a.27.27,0,0,1-.28-.28V26.88a.27.27,0,0,1,.28-.28h1.49a.34.34,0,0,1,.34.19l4.58,11,4.54-11a.34.34,0,0,1,.34-.19h1.53A.27.27,0,0,1,556.44,26.88Z" style="fill:#5c6670"/><path d="M568.9,26.93,565,33.47v6a.27.27,0,0,1-.28.28h-1.21a.27.27,0,0,1-.28-.28v-6l-3.88-6.52c-.11-.19,0-.34.19-.34h1.26a.36.36,0,0,1,.34.19l3,5,3-5a.36.36,0,0,1,.34-.19h1.26C568.94,26.6,569,26.75,568.9,26.93Z" style="fill:#5c6670"/><path d="M581.18,39.78h-1.45a.36.36,0,0,1-.34-.17l-4.58-6.16-1.22,1.36v4.69a.27.27,0,0,1-.28.28h-1.19a.27.27,0,0,1-.28-.28V26.88a.27.27,0,0,1,.28-.28h1.19a.27.27,0,0,1,.28.28v5.59l5-5.72a.41.41,0,0,1,.34-.15h1.54c.25,0,.3.17.15.34L576,32.17l5.39,7.27C581.48,39.63,581.4,39.78,581.18,39.78Z" style="fill:#5c6670"/><path d="M583.66,30.68a1,1,0,1,1,1,1A1,1,0,0,1,583.66,30.68Zm0,8.3a1,1,0,1,1,1,1A1,1,0,0,1,583.66,39Z" style="fill:#5c6670"/><path d="M602.6,35.71a4.27,4.27,0,1,1-8.53,0,5.09,5.09,0,0,1,1.15-3.09l4.59-6.23a.25.25,0,0,1,.4-.06l.75.56a.26.26,0,0,1,.06.4l-3.13,4.2a3.74,3.74,0,0,1,.43,0A4.21,4.21,0,0,1,602.6,35.71Zm-1.64,0a2.64,2.64,0,1,0-5.27,0,2.64,2.64,0,1,0,5.27,0Z" style="fill:#5c6670"/><path d="M613.37,35.71a4.27,4.27,0,1,1-8.53,0A5.09,5.09,0,0,1,606,32.62l4.59-6.23a.25.25,0,0,1,.4-.06l.75.56a.26.26,0,0,1,.06.4l-3.13,4.2a3.74,3.74,0,0,1,.43,0A4.21,4.21,0,0,1,613.37,35.71Zm-1.64,0a2.64,2.64,0,1,0-5.27,0,2.64,2.64,0,1,0,5.27,0Z" style="fill:#5c6670"/><path d="M617.79,39.17a3.9,3.9,0,0,1-.94,2.41.25.25,0,0,1-.15.06h-.23c-.09,0-.13-.06-.09-.15a3.15,3.15,0,0,0,.38-1.47,1,1,0,1,1,0-2.05A1.08,1.08,0,0,1,617.79,39.17Z" style="fill:#5c6670"/><path d="M634.45,35.46A4.37,4.37,0,0,1,629.89,40a4.5,4.5,0,0,1-3.67-1.79.24.24,0,0,1,.06-.38l.77-.58a.27.27,0,0,1,.42,0,3.06,3.06,0,0,0,2.45,1.17,2.94,2.94,0,1,0-2.28-4.8.27.27,0,0,1-.38.09l-.87-.34a.3.3,0,0,1-.19-.36l1.64-6.21a.29.29,0,0,1,.3-.25h5.25a.27.27,0,0,1,.28.28v.85a.27.27,0,0,1-.28.28h-4.33l-1,3.67a3.65,3.65,0,0,1,2.05-.58A4.3,4.3,0,0,1,634.45,35.46Z" style="fill:#5c6670"/><path d="M645.08,38.63v.87a.27.27,0,0,1-.28.28h-7.49a.27.27,0,0,1-.28-.28V38.34l2.94-3c2.37-2.43,3.48-3.48,3.48-4.91A2.33,2.33,0,0,0,640.88,28a3.63,3.63,0,0,0-2.62,1.15.27.27,0,0,1-.42,0l-.66-.6a.27.27,0,0,1,0-.4,5,5,0,0,1,3.73-1.69,3.91,3.91,0,0,1,4.18,4c0,1.73-1.28,3.14-3.56,5.46l-2.41,2.49h5.69A.27.27,0,0,1,645.08,38.63Z" style="fill:#5c6670"/><path d="M649.66,39.17a3.9,3.9,0,0,1-.94,2.41.25.25,0,0,1-.15.06h-.23c-.09,0-.13-.06-.09-.15a3.15,3.15,0,0,0,.38-1.47,1,1,0,1,1,0-2.05A1.08,1.08,0,0,1,649.66,39.17Z" style="fill:#5c6670"/><path d="M666.22,35.31v.87a.27.27,0,0,1-.28.28h-1.28v3a.27.27,0,0,1-.28.28h-1.13a.27.27,0,0,1-.28-.28v-3h-4.82a.27.27,0,0,1-.28-.28v-1a.78.78,0,0,1,.09-.36l4.9-8.08a.36.36,0,0,1,.34-.19h1.19a.27.27,0,0,1,.28.28V35h1.28A.27.27,0,0,1,666.22,35.31Zm-3.26-6L659.58,35H663Z" style="fill:#5c6670"/><path d="M677,35.46A4.37,4.37,0,0,1,672.49,40a4.5,4.5,0,0,1-3.67-1.79.24.24,0,0,1,.06-.38l.77-.58a.27.27,0,0,1,.42,0,3.06,3.06,0,0,0,2.45,1.17,2.94,2.94,0,1,0-2.28-4.8.27.27,0,0,1-.38.09l-.87-.34a.3.3,0,0,1-.19-.36l1.64-6.21a.29.29,0,0,1,.3-.25H676a.27.27,0,0,1,.28.28v.85A.27.27,0,0,1,676,28h-4.33l-1,3.67a3.65,3.65,0,0,1,2.05-.58A4.3,4.3,0,0,1,677,35.46Z" style="fill:#5c6670"/><path d="M681.62,39.17a3.9,3.9,0,0,1-.94,2.41.25.25,0,0,1-.15.06h-.23c-.09,0-.13-.06-.09-.15a3.15,3.15,0,0,0,.38-1.47,1,1,0,1,1,0-2.05A1.08,1.08,0,0,1,681.62,39.17Z" style="fill:#5c6670"/><path d="M693.35,26.88V39.49a.27.27,0,0,1-.28.28h-1.13a.27.27,0,0,1-.28-.28V28h-1.49a.27.27,0,0,1-.28-.28v-.87a.27.27,0,0,1,.28-.28h2.9A.27.27,0,0,1,693.35,26.88Z" style="fill:#5c6670"/><path d="M703.95,26.88l-4.8,12.62a.36.36,0,0,1-.34.28h-1.09c-.17,0-.28-.11-.23-.28L701.92,28h-5.59a.27.27,0,0,1-.28-.28v-.87a.27.27,0,0,1,.28-.28h7.4C703.89,26.6,704,26.71,703.95,26.88Z" style="fill:#5c6670"/><path d="M537.64,65.74h-1.3a.36.36,0,0,1-.34-.19l-3.11-4.71h-1.83v4.61a.27.27,0,0,1-.28.28H529.6a.27.27,0,0,1-.28-.28V52.84a.27.27,0,0,1,.28-.28h3.63c2.92,0,4.5,1.75,4.5,4.14a3.84,3.84,0,0,1-3.07,4l3.16,4.73C538,65.61,537.86,65.74,537.64,65.74Zm-6.57-6.5h2.09c1.56,0,2.88-.68,2.88-2.54s-1.32-2.54-2.88-2.54h-2.09Z" style="fill:#5c6670"/><path d="M552.81,59.08v.73a5.81,5.81,0,0,1-6,6.18,6.79,6.79,0,1,1,4.46-11.77.25.25,0,0,1,0,.4l-.75.79a.26.26,0,0,1-.39,0,5.1,5.1,0,0,0-3.35-1.28,5.08,5.08,0,0,0,0,10.15,4,4,0,0,0,4.33-3.9H547a.27.27,0,0,1-.28-.28v-1a.27.27,0,0,1,.28-.28h5.55A.27.27,0,0,1,552.81,59.08Z" style="fill:#5c6670"/><path d="M564.8,61.9c0,2.49-1.54,3.84-4.73,3.84H556a.27.27,0,0,1-.28-.28V52.84a.27.27,0,0,1,.28-.28h4.12c2.77,0,3.86,1.6,3.86,3.2a2.87,2.87,0,0,1-1.86,2.86A3.32,3.32,0,0,1,564.8,61.9Zm-4.86-7.74h-2.5V58h2.5c1.43,0,2.32-.73,2.32-2.07S561.35,54.16,559.94,54.16ZM563,61.79c0-1.41-.88-2.3-3-2.3h-2.62v4.65h2.62C562,64.14,563,63.44,563,61.79Z" style="fill:#5c6670"/><path d="M567.13,56.65a1,1,0,1,1,1,1A1,1,0,0,1,567.13,56.65Zm0,8.3a1,1,0,1,1,1,1A1,1,0,0,1,567.13,65Z" style="fill:#5c6670"/><path d="M586.11,56.72A5.09,5.09,0,0,1,585,59.81L580.37,66a.25.25,0,0,1-.4.06l-.75-.56a.26.26,0,0,1-.06-.4l3.13-4.2a3.72,3.72,0,0,1-.43,0,4.21,4.21,0,0,1-4.27-4.26,4.26,4.26,0,1,1,8.53,0Zm-1.62,0a2.64,2.64,0,1,0-5.27,0,2.64,2.64,0,1,0,5.27,0Z" style="fill:#5c6670"/><path d="M596.57,64.59v.87a.27.27,0,0,1-.28.28H588.8a.27.27,0,0,1-.28-.28V64.31l2.94-3c2.37-2.43,3.48-3.48,3.48-4.91A2.33,2.33,0,0,0,592.38,54a3.63,3.63,0,0,0-2.62,1.15.27.27,0,0,1-.42,0l-.66-.6a.27.27,0,0,1,0-.4,5,5,0,0,1,3.73-1.69,3.91,3.91,0,0,1,4.18,4c0,1.73-1.28,3.14-3.56,5.46l-2.41,2.49h5.69A.27.27,0,0,1,596.57,64.59Z" style="fill:#5c6670"/><path d="M601.15,65.14a3.9,3.9,0,0,1-.94,2.41.25.25,0,0,1-.15.06h-.23c-.09,0-.13-.06-.09-.15a3.15,3.15,0,0,0,.38-1.47,1,1,0,1,1,0-2.05A1.08,1.08,0,0,1,601.15,65.14Z" style="fill:#5c6670"/><path d="M612.87,52.84V65.46a.27.27,0,0,1-.28.28h-1.13a.27.27,0,0,1-.28-.28V54h-1.49a.27.27,0,0,1-.28-.28v-.87a.27.27,0,0,1,.28-.28h2.9A.27.27,0,0,1,612.87,52.84Z" style="fill:#5c6670"/><path d="M625.62,59.21c0,4.37-2.11,6.78-5,6.78s-5-2.41-5-6.78,2.11-6.8,5-6.8S625.62,54.82,625.62,59.21Zm-8.44,0c0,3.18,1.26,5.23,3.41,5.23S624,62.39,624,59.21,622.72,54,620.59,54,617.19,56,617.19,59.21Z" style="fill:#5c6670"/><path d="M636.18,64.59v.87a.27.27,0,0,1-.28.28H628.4a.27.27,0,0,1-.28-.28V64.31l2.94-3c2.37-2.43,3.48-3.48,3.48-4.91A2.33,2.33,0,0,0,632,54a3.63,3.63,0,0,0-2.62,1.15.27.27,0,0,1-.42,0l-.66-.6a.27.27,0,0,1,0-.4A5,5,0,0,1,632,52.41a3.91,3.91,0,0,1,4.18,4c0,1.73-1.28,3.14-3.56,5.46l-2.41,2.49h5.69A.27.27,0,0,1,636.18,64.59Z" style="fill:#5c6670"/><path d="M640.75,65.14a3.9,3.9,0,0,1-.94,2.41.25.25,0,0,1-.15.06h-.23c-.09,0-.13-.06-.09-.15a3.15,3.15,0,0,0,.38-1.47,1,1,0,1,1,0-2.05A1.08,1.08,0,0,1,640.75,65.14Z" style="fill:#5c6670"/><path d="M652.48,52.84V65.46a.27.27,0,0,1-.28.28h-1.13a.27.27,0,0,1-.28-.28V54H649.3a.27.27,0,0,1-.28-.28v-.87a.27.27,0,0,1,.28-.28h2.9A.27.27,0,0,1,652.48,52.84Z" style="fill:#5c6670"/><path d="M658.92,52.84V65.46a.27.27,0,0,1-.28.28h-1.13a.27.27,0,0,1-.28-.28V54h-1.49a.27.27,0,0,1-.28-.28v-.87a.27.27,0,0,1,.28-.28h2.9A.27.27,0,0,1,658.92,52.84Z" style="fill:#5c6670"/><path d="M669.76,64.59v.87a.27.27,0,0,1-.28.28H662a.27.27,0,0,1-.28-.28V64.31l2.94-3c2.37-2.43,3.48-3.48,3.48-4.91A2.33,2.33,0,0,0,665.57,54a3.63,3.63,0,0,0-2.62,1.15.27.27,0,0,1-.42,0l-.66-.6a.27.27,0,0,1,0-.4,5,5,0,0,1,3.73-1.69,3.91,3.91,0,0,1,4.18,4c0,1.73-1.28,3.14-3.56,5.46l-2.41,2.49h5.69A.27.27,0,0,1,669.76,64.59Z" style="fill:#5c6670"/></svg>