<svg id="959e8a02-7ee7-4acd-8a98-7840de2e4ec4" data-name="Layer 1" xmlns="http://www.w3.org/2000/svg" viewBox="0 0 64 64"><title>Artboard 1</title><path d="M.71,62.31H2.9V18.73H1.09v-5.8H16.93V5.74H15.58V0H46.11V5.74H44.7v7.18H60.55V18.7H58.77V58.24a13,13,0,0,1,1.46.25,4.13,4.13,0,0,1,2.89,3.28c0,.18.11.36.16.55V64H.71Zm42.29,0V5.78H18.66V62.26H25.4V51.14H36.3V62.28Zm14.07-4.53v-39H44.69V62.28H46a5.3,5.3,0,0,1,2.75-5.83c3-1.72,5.76-1,8.3,1.31M4.62,62.27h12.3V18.75H4.62Zm30-9.53H27.06v9.55h7.55ZM17.21,4.1H44.47V1.61H17.21Zm30.5,58.18h13.8A2.39,2.39,0,0,0,58.94,60a6.68,6.68,0,0,0-1.53.2c-.34.09-.48,0-.7-.26a14.69,14.69,0,0,0-2.23-2,4.57,4.57,0,0,0-5.69.55,3.69,3.69,0,0,0-1.09,3.86m-45-45.2H16.93V14.59H2.68ZM58.94,14.6H44.72v2.48H58.94Z" style="fill:#383839"/><rect x="27.06" y="52.75" width="7.55" height="9.55" style="fill:#80a6ab"/><rect x="17.21" y="1.61" width="27.27" height="2.49" style="fill:#80a6ab"/><path d="M47.71,62.28a3.69,3.69,0,0,1,1.09-3.85,4.57,4.57,0,0,1,5.69-.55,14.69,14.69,0,0,1,2.23,2c.22.22.36.34.7.26a6.72,6.72,0,0,1,1.53-.2,2.39,2.39,0,0,1,2.57,2.32Z" style="fill:#80a6ab"/><rect x="2.68" y="14.59" width="14.25" height="2.49" style="fill:#80a6ab"/><rect x="44.72" y="14.6" width="14.22" height="2.48" style="fill:#80a6ab"/><path d="M32.05,9h8.54v11.8H32.05ZM33.7,19.17H39V10.63H33.7Z" style="fill:#383839"/><path d="M21.07,9H29.6V20.78H21.07ZM22.7,19.17H28V10.62H22.7Z" style="fill:#383839"/><path d="M32.06,37.19h8.51V49H32.06Zm1.65,10.18H39V38.82H33.71Z" style="fill:#383839"/><path d="M40.58,34.92h-8.5V23.1h8.5ZM39,24.71H33.72v8.6H39Z" style="fill:#383839"/><path d="M29.63,49h-8.5V37.2h8.5ZM28,38.84H22.71v8.53H28Z" style="fill:#383839"/><path d="M29.64,34.92H21.13V23.1h8.51ZM22.71,33.3H28V24.7H22.71Z" style="fill:#383839"/><rect x="39.05" y="51.55" width="1.54" height="5.73" style="fill:#383839"/><rect x="21.12" y="51.38" width="1.51" height="5.72" style="fill:#383839"/><path d="M46.66,34.17h8.51V46H46.66Zm1.61,10.18h5.26V35.8H48.27Z" style="fill:#383839"/><path d="M46.64,21.44h8.53V33.22H46.64Zm1.62,10.17h5.25V23H48.26Z" style="fill:#383839"/><polygon points="47.99 56.07 46.39 56.07 46.39 47.95 54.9 47.95 54.9 53.82 53.33 53.82 53.33 49.61 47.99 49.61 47.99 56.07" style="fill:#383839"/><path d="M6.62,47.18h8.56V59H6.62ZM8.27,57.36h5.27V48.82H8.27Z" style="fill:#383839"/><path d="M15.2,33.34H6.62V21.55H15.2ZM8.27,31.69h5.26V23.13H8.27Z" style="fill:#383839"/><path d="M6.61,34.29H15.2V46.07H6.61Zm6.95,1.61H8.27v8.56h5.29Z" style="fill:#383839"/></svg>