<svg id="e22792a1-1e0d-47e3-9991-2b2080ffc6b2" data-name="Layer 1" xmlns="http://www.w3.org/2000/svg" viewBox="0 0 60.94 60.94"><title>Design</title><path d="M11.34,41.76a58.69,58.69,0,0,1-2.91,5.56,2.11,2.11,0,0,0,.28,2.77,10.17,10.17,0,0,0,1.52,1.28.9.9,0,0,0,1.09,0c2.28-1.29,4.6-2.49,6.85-3.83A27.58,27.58,0,0,0,21,45.39l-6.8-7A11.59,11.59,0,0,0,11.34,41.76Z" style="fill:#fff"/><path d="M23.46,36.54l14.6-14.27L53.82,6.87,50,3.21,34.46,18.43,20.69,31.94l-5.62,5.51,3.61,3.77Z" style="fill:#fff"/><path d="M56.7,9.84,54.62,7.65,38.83,23.09,24.06,37.53l-4.52,4.42,2.34,2.38,3.94-3.9L41,25.39Z" style="fill:#fff"/><path d="M31.89,38l1.8,1.88,2-1.84c.25-.23.54-.46.78-.11.09.13-.07.54-.23.7-.62.62-1.28,1.2-2,1.83l.71.76,1.77-1.61c.12-.11.23-.29.38-.32a2.52,2.52,0,0,1,.66,0c0,.2,0,.47-.15.59-.66.64-1.35,1.25-2.09,1.92l.81.91,3.94-3.59c.12-.11.24-.23.37-.34.43-.35.88-.36,1.16,0a.74.74,0,0,1-.17,1.1l-4,3.65c-.08.07-.14.15-.26.27l.79.86,2-1.78c.23-.21.48-.52.79-.19s0,.57-.23.78l-2,1.78.69.77,2-1.84c.22-.2.47-.43.75-.11s0,.53-.2.73l-2,1.83.7.76,1.72-1.56a1.63,1.63,0,0,1,.43-.36,2.09,2.09,0,0,1,.61,0c0,.22,0,.51-.09.63-.66.66-1.37,1.28-2.1,2l.71.76,2-1.84c.23-.21.51-.43.73-.1.09.14,0,.55-.2.71-.62.62-1.29,1.2-2,1.84l.82.88.57-.49,3.53-3.22c.58-.53,1-.6,1.36-.2s.25.76-.32,1.28L45,50.88l-.58.54.82.87c.69-.62,1.34-1.25,2-1.81.17-.14.49-.09.75-.12-.06.23-.06.53-.2.68-.63.64-1.31,1.23-2,1.87l.7.76c.67-.6,1.3-1.21,2-1.76.2-.16.64-.29.78-.19.37.29,0,.54-.21.75l-2,1.8.69.77c.65-.59,1.27-1.16,1.89-1.71.25-.22.51-.65.88-.23s-.12.62-.35.85c-.59.57-1.2,1.11-1.85,1.7l.7.76,1.83-1.64c.11-.1.2-.25.33-.29a2.67,2.67,0,0,1,.61,0c0,.22,0,.51-.11.64-.66.66-1.37,1.28-2.09,1.95l1.79,2.14,7.69-7C53,45.42,45.6,37.38,39.36,30.61Z" style="fill:#7ea8ad"/><path d="M29.21,20C24,14.39,17.78,7.56,12.52,1.9l-7.69,7L7,11.27l.47-.42,3.77-3.43c.47-.42.89-.45,1.21-.09s.26.76-.21,1.19L8,12.38l.82.87c.68-.62,1.33-1.25,2-1.81.17-.14.5-.1.75-.14-.07.25-.07.57-.23.74-.62.62-1.29,1.2-2,1.83l.71.77,2-1.84c.23-.21.52-.43.73-.11.09.14,0,.56-.21.72-.61.62-1.28,1.2-2,1.83l.69.77c.68-.62,1.32-1.23,2-1.8.18-.15.6-.27.72-.17.35.28.06.54-.18.76l-2,1.8.7.77c.68-.62,1.33-1.24,2-1.81.18-.14.6-.25.72-.14.36.3,0,.54-.2.76l-2,1.81.83.88,4-3.67c.11-.1.21-.21.33-.29a.73.73,0,0,1,1.07,0A.69.69,0,0,1,19.44,16c-.62.59-1.27,1.16-1.9,1.74l-2.44,2.23.78.83,2-1.83c.22-.2.46-.44.75-.13s0,.53-.19.73l-2,1.84.71.76,2-1.84c.23-.21.51-.44.73-.11.09.14,0,.55-.2.71-.62.63-1.28,1.2-2,1.84l.7.76,2-1.84c.23-.22.51-.42.73-.1.09.13,0,.53-.18.68-.63.64-1.32,1.23-2,1.87l.71.76c.69-.63,1.32-1.24,2-1.8.18-.15.61-.26.73-.16.34.29,0,.54-.2.76l-2,1.8,1.57,1.75Z" style="fill:#7ea8ad"/><path d="M40.38,29.6,59.12,11c.9-.89.9-1.44,0-2.34L51.54.84c-.29-.3-.61-.56-.92-.84h-.88c-.29.24-.6.45-.87.72L30.34,18.9l-.95-1L13.33.58c-.58-.62-.89-.63-1.54,0l-8,7.34c-1,.91-1,1-.06,2l10,10.78,7.08,7.59L10.46,38.41a3.49,3.49,0,0,0-.62.85Q6.49,45.63,3.15,52c-1,2-2.1,3.95-3.15,5.92v.88c.74,1,1.18,1.06,2.29.45l17.92-9.91a4.17,4.17,0,0,0,.91-.66l9.83-9.73c.42.52,1,1.2,1.06,1.28L46.37,55.83c1.58,1.71,3.17,3.41,4.75,5.11h.63l8.56-7.83.63-.6v-.63C54.47,44.85,46.84,36.63,40.38,29.6ZM20.27,25.49l2-1.8c.24-.22.53-.48.2-.76-.12-.1-.55,0-.73.16-.68.56-1.31,1.17-2,1.8L19,24.12c.7-.64,1.38-1.23,2-1.87.15-.15.27-.55.18-.68-.22-.32-.5-.12-.73.1l-2,1.84-.7-.76c.7-.64,1.36-1.21,2-1.84.16-.16.29-.57.2-.71-.22-.33-.5-.1-.73.11l-2,1.84-.71-.76,2-1.84c.22-.2.48-.42.19-.73s-.52-.08-.75.13l-2,1.83-.78-.83,2.44-2.23c.64-.58,1.28-1.15,1.9-1.74a.69.69,0,0,0,.07-1.06.73.73,0,0,0-1.07,0c-.12.09-.22.2-.33.29l-4,3.67L13.25,18l2-1.81c.23-.21.56-.46.2-.76-.12-.1-.55,0-.72.14-.69.57-1.34,1.19-2,1.81l-.7-.77,2-1.8c.24-.22.53-.48.18-.76-.12-.1-.54,0-.72.17-.69.57-1.33,1.19-2,1.8l-.69-.77c.69-.63,1.36-1.21,2-1.83.16-.16.3-.58.21-.72-.22-.33-.5-.1-.73.11l-2,1.84-.71-.77c.7-.63,1.36-1.21,2-1.83.16-.16.16-.49.23-.74-.25,0-.58,0-.75.14-.69.57-1.34,1.19-2,1.81L8,12.38l4.22-3.84c.48-.44.54-.84.21-1.19s-.74-.33-1.21.09L7.49,10.86,7,11.27,4.83,8.91l7.69-7C17.78,7.56,24,14.39,29.21,20l-7.37,7.23Zm.43,6.45,13.76-13.5L50,3.21l3.85,3.66L38.06,22.27,23.46,36.54l-4.78,4.68-3.61-3.77Zm-2.53,15.6c-2.25,1.34-4.57,2.54-6.85,3.83a.9.9,0,0,1-1.09,0,10.17,10.17,0,0,1-1.52-1.28,2.11,2.11,0,0,1-.28-2.77,58.69,58.69,0,0,0,2.91-5.56,11.59,11.59,0,0,1,2.82-3.4l6.8,7A27.58,27.58,0,0,1,18.17,47.53Zm7.64-7.1-3.94,3.9-2.34-2.38,4.52-4.42L38.83,23.09,54.62,7.65,56.7,9.84,41,25.39ZM51.46,59.16,49.67,57c.72-.66,1.43-1.28,2.09-1.95.12-.12.08-.42.11-.64a2.67,2.67,0,0,0-.61,0c-.13,0-.22.19-.33.29L49.1,56.39l-.7-.76c.65-.6,1.26-1.14,1.85-1.7.23-.22.72-.43.35-.85s-.63,0-.88.23c-.63.55-1.24,1.12-1.89,1.71l-.69-.77,2-1.8c.22-.21.58-.46.21-.75-.13-.11-.58,0-.78.19-.68.55-1.31,1.16-2,1.76l-.7-.76c.7-.64,1.38-1.23,2-1.87.15-.15.14-.45.2-.68-.25,0-.58,0-.75.12-.7.57-1.35,1.19-2,1.81l-.82-.87.58-.54,3.54-3.22c.57-.52.66-.9.32-1.28s-.77-.33-1.36.2L44,49.81l-.57.49-.82-.88c.71-.64,1.37-1.22,2-1.84.16-.16.29-.57.2-.71-.22-.33-.5-.11-.73.1l-2,1.84-.71-.76c.73-.67,1.44-1.29,2.1-2,.12-.12.06-.42.09-.63a2.09,2.09,0,0,0-.61,0,1.63,1.63,0,0,0-.43.36l-1.72,1.56-.7-.76,2-1.83c.22-.2.48-.42.2-.73s-.52-.09-.75.11l-2,1.84-.69-.77,2-1.78c.24-.22.53-.46.23-.78s-.56,0-.79.19l-2,1.78-.79-.86c.12-.12.18-.2.26-.27l4-3.65a.74.74,0,0,0,.17-1.1c-.29-.37-.73-.37-1.16,0-.13.11-.25.22-.37.34l-3.94,3.59-.81-.91c.73-.67,1.43-1.28,2.09-1.92.12-.12.1-.39.15-.59a2.52,2.52,0,0,0-.66,0c-.14,0-.25.21-.38.32L35,41.23l-.71-.76c.69-.63,1.35-1.21,2-1.83.16-.16.32-.58.23-.7-.24-.36-.54-.12-.78.11l-2,1.84L31.89,38l7.47-7.4C45.6,37.38,53,45.42,59.15,52.15Z" style="fill:#404041"/></svg>