<svg id="6ed9666e-d772-4be7-ba9c-899164397a33" data-name="Layer 1" xmlns="http://www.w3.org/2000/svg" viewBox="0 0 26 26"><title>Artboard 1</title><path d="M19.1,12.14v1.67a.55.55,0,0,1-.58.58H14.45v4.17a.55.55,0,0,1-.58.58H12.21a.55.55,0,0,1-.58-.58V14.4H7.48a.55.55,0,0,1-.58-.58V12.14a.55.55,0,0,1,.58-.58h4.15V7.43a.55.55,0,0,1,.58-.58h1.67a.55.55,0,0,1,.58.58v4.13h4.07A.55.55,0,0,1,19.1,12.14Z" style="fill:#fff"/><path d="M0,12.95A13,13,0,1,1,13,26,13,13,0,0,1,0,12.95ZM24,13A11,11,0,1,0,13,24,11.06,11.06,0,0,0,24,13Z" style="fill:#fff"/></svg>