<svg id="ee1bcd50-e810-4468-8e29-6b81b82a6b10" data-name="Layer 1" xmlns="http://www.w3.org/2000/svg" viewBox="0 0 56 56"><title>Artboard 1</title><path d="M0,27.88A28,28,0,1,1,27.92,56,28,28,0,0,1,0,27.88ZM51.77,28A23.78,23.78,0,1,0,27.95,51.77,23.83,23.83,0,0,0,51.77,28Z" style="fill:#fff"/><path d="M22.3,15.1a9.47,9.47,0,0,1,1,.55q7.91,5.45,15.8,10.93c1.45,1,1.46,1.81.05,2.79q-7.89,5.48-15.81,10.92c-.48.33-1.37.63-1.73.4A2.33,2.33,0,0,1,20.88,39c0-7.32,0-14.64,0-22C20.84,16,20.94,15.21,22.3,15.1Z" style="fill:#fff"/></svg>