<svg id="0840e1fa-ca02-4725-aa4f-082f9f54493d" data-name="Layer 1" xmlns="http://www.w3.org/2000/svg" viewBox="0 0 748 22"><title>Artboard 1</title><rect width="33.38" height="13.35" style="fill:#c4c3c5"/><path d="M718.2,13.35V0h-292a8.33,8.33,0,0,1-8.4,8.25h-87A8.33,8.33,0,0,1,322.41,0h-289V13.35Z" style="fill:#d2d2d4"/><rect x="718.2" width="29.8" height="13.35" style="fill:#e8ebef"/><path d="M330.81,8.25h43.52V0H322.41A8.33,8.33,0,0,0,330.81,8.25Z" style="fill:#b2b3b5"/><path d="M417.84,8.25A8.33,8.33,0,0,0,426.25,0H374.33V8.25Z" style="fill:#c4c3c5"/><path d="M33.38,13.35H0C5.23,19,11.17,22,17.2,22H730.8c6,0,12-3,17.2-8.65H33.38Z" style="fill:#b2b3b5"/></svg>