<svg id="5f30ff5a-0226-4ff1-9f04-9ae4a37b0e6f" data-name="Layer 1" xmlns="http://www.w3.org/2000/svg" viewBox="0 0 217 97"><title>Artboard 1</title><path d="M88.26,5.67c-3.88-3-10.57-3.8-20.48-2.46L52.26,6.69c.49.07,1,.17,1.46.26L54.2,7q1,.2,2.06.45A45.28,45.28,0,0,1,89.33,62.25h0c-.21.84-.44,1.66-.69,2.47-.09.29-.19.59-.29.88-.18.55-.37,1.09-.57,1.63-.11.29-.22.57-.33.85q-.33.84-.7,1.67l-.33.73c-.07.15-.13.31-.21.46A15.06,15.06,0,0,0,97.66,54.53h0L93.23,17.95C92.68,13.37,92.1,8.63,88.26,5.67Z" style="fill:#fff"/><path d="M108.39,3.23a12.19,12.19,0,1,0,12.19,12.19A12.21,12.21,0,0,0,108.39,3.23Zm0,21.54a9.37,9.37,0,1,1,9.37-9.37A9.38,9.38,0,0,1,108.4,24.77Z" style="fill:#fff"/><path d="M169.32,8.23A43.22,43.22,0,1,0,213.53,41,43.57,43.57,0,0,0,169.32,8.23Zm34.13,62.4A37,37,0,0,1,180.5,87.54a37.55,37.55,0,0,1-9,1.1,37,37,0,0,1-19.18-5.37,1,1,0,0,1,0-1.71l12.36-7.39-1.84-9.08a1,1,0,0,1,.76-1.17l4.62-1-7.95-1.33-1.62,7a1,1,0,0,1-.65.72l-14.86,5.14a1,1,0,0,1-1.12-.33,37.28,37.28,0,0,1,36.58-59.29,37.42,37.42,0,0,1,12.18,4.7,37.26,37.26,0,0,1,12.63,51.12Z" style="fill:#fff"/><path d="M83.55,71.78c.19-.36.36-.73.54-1.09.61-1.23,1.18-2.48,1.68-3.77a44.4,44.4,0,0,0,1.62-5.15A43.28,43.28,0,0,0,55.8,9.43c-1-.25-2-.44-3-.62s-2.05-.33-3.08-.43q-1-.1-2-.16t-2.3-.06A43.23,43.23,0,1,0,83.54,71.79Zm-8.6,2.33A37.44,37.44,0,0,1,45.49,88.63a37.54,37.54,0,0,1-9-1.1A37.31,37.31,0,0,1,8.6,57a1,1,0,0,1,1.27-1.11l23,6.71L43.56,49.34a1,1,0,0,1,1.15-.3L54.55,53,43.2,41C31.36,54.59,30.48,54.3,29.78,54.07c-1-.35-16.83-8.8-20-10.49a1,1,0,0,1-.5-1.12A37,37,0,0,1,26.18,19.51a37.43,37.43,0,0,1,12.18-4.7A37.26,37.26,0,0,1,74.95,74.11Z" style="fill:#fff"/><path d="M130.79,70.94l-.19-.43c-.13-.27-.24-.54-.36-.82q-.35-.79-.67-1.6c-.12-.29-.23-.58-.34-.87-.21-.56-.4-1.12-.59-1.69-.09-.26-.18-.52-.26-.79-.26-.83-.49-1.66-.7-2.5a45.27,45.27,0,0,1,33-54.75q1-.25,2-.45l.7-.12,1.26-.22-15.6-3.51a62.18,62.18,0,0,0-8.21-.61c-5.48,0-9.51,1-12.19,3.1-3.84,3-4.41,7.7-5,12.28l-4.44,36.56a15.07,15.07,0,0,0,11.45,16.42Z" style="fill:#fff"/><path d="M215.48,40.54a45.24,45.24,0,0,0-46-34.32A25.77,25.77,0,0,0,166.17,5L149.49,1.22C139-.19,131.84.75,127.51,4.09a13.34,13.34,0,0,0-4.63,7.32A15,15,0,0,0,94,11a13.13,13.13,0,0,0-4.52-6.91C85.16.75,78-.19,67.43,1.24L50.75,5a27.8,27.8,0,0,0-3.21,1.24A45.23,45.23,0,1,0,85,73.17a17,17,0,0,0,14.6-18.89L96,23.92a15,15,0,0,0,25.11-.46l-3.74,30.81A17,17,0,0,0,132,73.17a45.22,45.22,0,0,0,83.52-32.63Zm-96.14,14L123.77,18c.55-4.58,1.13-9.32,5-12.28,2.68-2.07,6.71-3.1,12.19-3.1a62.18,62.18,0,0,1,8.21.61l15.6,3.51-1.26.22-.7.12q-1,.2-2,.45a45.27,45.27,0,0,0-33,54.75c.21.84.45,1.67.7,2.5.08.27.17.53.26.79.19.57.38,1.13.59,1.69.11.29.22.58.34.87q.32.81.67,1.6c.12.27.24.55.36.82l.19.43a15.07,15.07,0,0,1-11.45-16.42ZM35.05,93.35A43.23,43.23,0,0,1,45.37,8.16q1.15,0,2.3.06t2,.16c1,.1,2.05.26,3.08.43s2,.37,3,.62A43.28,43.28,0,0,1,87.38,61.77a44.4,44.4,0,0,1-1.62,5.15c-.49,1.29-1.07,2.54-1.68,3.77-.18.36-.35.74-.54,1.09h0A43.18,43.18,0,0,1,35.05,93.35ZM97.66,54.53A15.06,15.06,0,0,1,86.21,70.94c.07-.15.13-.31.21-.46l.33-.73q.37-.82.7-1.67c.11-.28.22-.57.33-.85.2-.54.39-1.08.57-1.63.1-.29.2-.58.29-.88.25-.82.49-1.64.69-2.47h0A45.28,45.28,0,0,0,56.27,7.48q-1-.25-2.06-.45l-.48-.08c-.49-.09-1-.18-1.46-.26L67.78,3.21c9.9-1.34,16.6-.53,20.48,2.46s4.41,7.7,5,12.27l4.43,36.58Zm10.72-26.91a12.19,12.19,0,1,1,12.19-12.19A12.21,12.21,0,0,1,108.39,27.62Zm73.56,65.73A43.22,43.22,0,1,1,213.53,41,43.17,43.17,0,0,1,181.95,93.35Z" style="fill:#1a1a1a"/><path d="M201.74,69.59a35.26,35.26,0,0,0-12-48.37,35,35,0,0,0-26.66-4A35.26,35.26,0,0,0,143.2,72.31l13.65-4.72,1.71-7.42a1,1,0,0,1,1.14-.76l13.92,2.33a1,1,0,0,1,.05,2L165,65.64l1.78,8.81a1,1,0,0,1-.47,1.06l-11.5,6.87a35.22,35.22,0,0,0,46.91-12.79Z" style="fill:#7ea8ad"/><path d="M190.82,19.51a37,37,0,0,0-28.17-4.26,37.26,37.26,0,0,0-20.6,58.86,1,1,0,0,0,1.12.33L158,69.3a1,1,0,0,0,.65-.72l1.62-7,7.95,1.33-4.62,1a1,1,0,0,0-.76,1.17l1.84,9.08-12.36,7.39a1,1,0,0,0,0,1.71,37,37,0,0,0,19.18,5.38,37.55,37.55,0,0,0,9-1.1,37.24,37.24,0,0,0,10.31-68Zm-36,62.87,11.5-6.87a1,1,0,0,0,.47-1.06L165,65.64l8.66-1.94a1,1,0,0,0-.05-2L159.7,59.41a1,1,0,0,0-1.14.76l-1.71,7.42L143.2,72.31a35.28,35.28,0,0,1,35.05-55.53,35.42,35.42,0,0,1,11.53,4.45,35.23,35.23,0,0,1-35,61.16Z" style="fill:#1a1a1a"/><path d="M73.36,72.89A35.28,35.28,0,0,0,38.74,16.78a35.42,35.42,0,0,0-11.53,4.45,35,35,0,0,0-15.79,21C18.32,45.88,28.06,51,30.09,52c1.53-1.12,7.29-7.37,12.32-13.16a1,1,0,0,1,.73-.34h0a1,1,0,0,1,.73.31L59.15,54.9A1,1,0,0,1,58,56.52L44.65,51.17,34,64.35a1,1,0,0,1-1.06.33L10.85,58.23A35.24,35.24,0,0,0,63.63,81.55,34.94,34.94,0,0,0,73.36,72.89Z" style="fill:#7ea8ad"/><path d="M77.3,32.16A37.32,37.32,0,0,0,38.36,14.82a37.43,37.43,0,0,0-12.18,4.7A37,37,0,0,0,9.29,42.46a1,1,0,0,0,.5,1.12c3.16,1.69,19,10.14,20,10.49.7.23,1.58.53,13.42-13.06L54.55,53,44.71,49a1,1,0,0,0-1.15.3L32.88,62.58l-23-6.71A1,1,0,0,0,8.6,57,37.31,37.31,0,0,0,36.5,87.54a37.54,37.54,0,0,0,9,1.1A37.23,37.23,0,0,0,77.3,32.16ZM37,85.59A35.32,35.32,0,0,1,10.85,58.23L33,64.68A1,1,0,0,0,34,64.35L44.65,51.17,58,56.52a1,1,0,0,0,1.1-1.62L43.89,38.83a1,1,0,0,0-.73-.31h0a1,1,0,0,0-.73.34c-5,5.79-10.79,12-12.32,13.16-2-1-11.77-6.15-18.67-9.84a35,35,0,0,1,15.79-21,35.42,35.42,0,0,1,11.53-4.45A35.24,35.24,0,1,1,37,85.59Z" style="fill:#1a1a1a"/><circle cx="108.4" cy="15.4" r="7.37" style="fill:#7ea8ad"/><path d="M108.4,6a9.37,9.37,0,1,0,9.37,9.37A9.38,9.38,0,0,0,108.4,6Zm0,16.75a7.37,7.37,0,1,1,7.37-7.37A7.38,7.38,0,0,1,108.4,22.77Z" style="fill:#1a1a1a"/></svg>