<svg id="4410d415-7456-413a-b23d-3bf06f613216" data-name="Layer 1" xmlns="http://www.w3.org/2000/svg" viewBox="0 0 64 64"><title>Strategy</title><path d="M57.45,6.63c1.33,0,2.54,0,3.75,0s2,0,2.53,1.14a2.61,2.61,0,0,1-.63,3.11c-2,2.09-4.08,4.19-6.21,6.19a1.5,1.5,0,0,0-.26,2.22,28,28,0,0,1,3.73,14.65C60,47.59,51.51,58.28,40.17,62c-11.06,3.66-21.2,1.75-30-5.92a28.83,28.83,0,0,1-10-19.56A30.09,30.09,0,0,1,25.75,3.86,29.59,29.59,0,0,1,45.27,7.54a1.06,1.06,0,0,0,1.56-.2c1.84-1.93,3.74-3.79,5.59-5.7A3.66,3.66,0,0,1,55.61.18a1.81,1.81,0,0,1,1.84,2.06C57.47,3.68,57.45,5.11,57.45,6.63ZM42.91,19.12a2.34,2.34,0,0,0,1.32-2.43c-.11-1.87-.08-3.75,0-5.63a1.51,1.51,0,0,0-1-1.62A27.49,27.49,0,0,0,3.2,38.86,27.32,27.32,0,0,0,35.38,60.62,27.2,27.2,0,0,0,57.6,35.39a27.5,27.5,0,0,0-3.11-14.64,1.5,1.5,0,0,0-1.62-1,44.86,44.86,0,0,1-5.23,0,2.6,2.6,0,0,0-2.74,1.5c7.75,10.06,4.33,21.49-2.61,27.21a19.53,19.53,0,0,1-24.9-.55c-7.56-6.8-7.91-18.39-2.71-25.57C19.57,15.61,31.62,10.39,42.91,19.12ZM42.66,23c-1.72,1.81-3.34,3.57-5,5.25a1.3,1.3,0,0,0-.3,1.79,7.53,7.53,0,0,1-.25,7.62,8,8,0,0,1-10.57,3.09,8.05,8.05,0,1,1,7.57-14.22c.38.2,1.1.33,1.32.13,1.87-1.75,3.66-3.58,5.47-5.39C36.2,16.66,26.45,15,19.2,21.37A16.44,16.44,0,0,0,18,44.72,16.42,16.42,0,0,0,42.66,23Zm12-19.41-.33-.1q-3.54,3.57-7.08,7.14a1.34,1.34,0,0,0-.43.77c0,1.86,0,3.71,0,5.81,1.88,0,3.53.05,5.17,0a2.69,2.69,0,0,0,1.58-.66c1.8-1.7,3.54-3.48,5.29-5.24.57-.57,1.12-1.15,1.93-2H56.6c-1.45,0-1.87-.41-1.89-1.84S54.7,4.91,54.7,3.63ZM33.31,29.39a5.51,5.51,0,0,0-7.55,1.09,5.44,5.44,0,0,0,.89,7.19A5.36,5.36,0,0,0,34,37.44c1.68-1.72,2.07-4.54.76-6.07-1.12,1-2.29,2-3.35,3.08-.69.71-1.27.92-2.1.26-1-.82-.38-1.46.22-2C30.72,31.57,32,30.53,33.31,29.39Z" style="fill:#404041"/><path d="M42.91,19.12c-11.29-8.73-23.34-3.51-28.23,3.23-5.2,7.18-4.85,18.78,2.71,25.57a19.53,19.53,0,0,0,24.9.55c6.93-5.73,10.36-17.15,2.61-27.21a2.6,2.6,0,0,1,2.74-1.5,44.86,44.86,0,0,0,5.23,0,1.5,1.5,0,0,1,1.62,1A27.5,27.5,0,0,1,57.6,35.39,27.2,27.2,0,0,1,35.38,60.62,27.5,27.5,0,1,1,25.79,6.48a27.27,27.27,0,0,1,17.48,3,1.51,1.51,0,0,1,1,1.62c-.08,1.87-.11,3.76,0,5.63A2.34,2.34,0,0,1,42.91,19.12Z" style="fill:#fff"/><path d="M42.66,23A16.42,16.42,0,1,1,19.2,21.37c7.25-6.41,17-4.71,21.66-.06-1.81,1.81-3.6,3.64-5.47,5.39-.22.2-.94.07-1.32-.13a8.05,8.05,0,1,0,3,11.13,7.53,7.53,0,0,0,.25-7.62,1.3,1.3,0,0,1,.3-1.79C39.32,26.6,40.94,24.84,42.66,23Z" style="fill:#fff"/><path d="M54.7,3.63c0,1.29,0,2.58,0,3.86s.44,1.83,1.89,1.84h4.23c-.81.83-1.36,1.42-1.93,2-1.75,1.76-3.49,3.54-5.29,5.24a2.69,2.69,0,0,1-1.58.66c-1.64.09-3.29,0-5.17,0,0-2.1,0-4,0-5.81a1.34,1.34,0,0,1,.43-.77q3.52-3.58,7.08-7.14Z" style="fill:#7ea8ad"/><path d="M33.31,29.39c-1.32,1.14-2.59,2.18-3.79,3.3-.6.56-1.23,1.2-.22,2,.83.66,1.41.45,2.1-.26,1.06-1.08,2.23-2.06,3.35-3.08,1.31,1.53.93,4.35-.76,6.07a5.36,5.36,0,0,1-7.35.23,5.44,5.44,0,0,1-.89-7.19A5.51,5.51,0,0,1,33.31,29.39Z" style="fill:#fff"/></svg>