<svg id="ce2b8ca6-dc66-43bc-a0a5-020c629c654d" data-name="Layer 1" xmlns="http://www.w3.org/2000/svg" viewBox="0 0 64 64"><title>Artboard 1</title><path d="M8.77,64c-.08-.06-.16-.13-.25-.19A1,1,0,0,1,8.06,63c0-.73,0-1.46,0-2.19a10,10,0,0,1,.12-1.22,8.48,8.48,0,0,1,.6-2.22,3.32,3.32,0,0,1,1.07-1.31l.07,0c-.09-.12-.2-.08-.29-.08H4.28c-1.07,0-2.14,0-3.21,0a1.05,1.05,0,0,1-1-1.06c0-.46,0-.92,0-1.38a13.3,13.3,0,0,1,.14-1.7,5.26,5.26,0,0,1,.63-1.9,2.71,2.71,0,0,1,.87-.86,12.17,12.17,0,0,1,2.68-1.25c.39-.13.79-.24,1.18-.38a10.14,10.14,0,0,1,1.32-.36c.41-.09.82-.23,1.23-.33a10.79,10.79,0,0,1,1.43-.27,2.74,2.74,0,0,0,1.74-.91,5,5,0,0,0,1-1.31c.13-.27.13-.34-.09-.53a9.31,9.31,0,0,1-1.29-1.49,10.75,10.75,0,0,1-1.18-2.1c-.26-.61-.5-1.23-.75-1.84-.15-.37-.32-.73-.46-1.11s-.19-.64-.27-1S8,35.62,8,35.31s-.11-.61-.15-.91-.1-.75-.12-1.13a10,10,0,0,1,.07-2.54c.07-.36.1-.73.15-1.09a5,5,0,0,1,.31-1.14c.14-.37.28-.73.43-1.09a7.34,7.34,0,0,1,.5-1,15.36,15.36,0,0,1,1.07-1.52,7,7,0,0,1,1.48-1.34,9.07,9.07,0,0,1,2.51-1.2A9.68,9.68,0,0,1,17.15,22h.72a9.42,9.42,0,0,1,1.56.21,9.16,9.16,0,0,1,1.43.4,4.54,4.54,0,0,1,.76.32.35.35,0,0,0,.45-.06c.38-.31.76-.63,1.17-.91a9.21,9.21,0,0,1,1.12-.68,14.25,14.25,0,0,1,1.44-.63,10.5,10.5,0,0,1,1.08-.29l.86-.21h0c.41,0,.83-.12,1.24-.13.69,0,1.38,0,2.07,0a4.09,4.09,0,0,1,.55.09l.27,0c.36,0,.73.07,1.09.14s.73.23,1.1.32a6.81,6.81,0,0,1,1.35.52,9.91,9.91,0,0,1,2.49,1.64,2.77,2.77,0,0,1,.33.29c.09.11.15.09.25,0a7.91,7.91,0,0,1,1.57-.69A10.28,10.28,0,0,1,41.75,22a6.68,6.68,0,0,1,1.11,0c.46,0,.92,0,1.38,0s.82.14,1.23.2a6,6,0,0,1,1.34.38c.44.18.88.38,1.31.6a7.27,7.27,0,0,1,2,1.47,6.8,6.8,0,0,1,1.42,2c.23.54.5,1.07.69,1.63a11.64,11.64,0,0,1,.32,1.36,10.29,10.29,0,0,1,.16,2.15c0,.7-.07,1.39-.13,2.09,0,.35-.09.69-.15,1s-.12.62-.2.93-.13.4-.18.6a10.38,10.38,0,0,1-.54,1.46c-.15.38-.29.77-.47,1.14-.29.63-.57,1.26-.91,1.86a10.94,10.94,0,0,1-1.37,2c-.28.31-.58.61-.88.91-.15.15-.18.25-.09.4a6,6,0,0,0,1.35,1.68,2.55,2.55,0,0,0,1.3.59c.36,0,.72.15,1.08.22l.76.15a4.3,4.3,0,0,1,.89.23,3.92,3.92,0,0,0,.54.14c.47.13,1,.23,1.41.39.73.26,1.46.55,2.17.87a5.73,5.73,0,0,1,1.44.86,3.06,3.06,0,0,1,.89,1.43,9.16,9.16,0,0,1,.33,1.45,1.76,1.76,0,0,1,0,.21c0,.86,0,1.72.05,2.58a1.05,1.05,0,0,1-1,1c-2.82,0-5.63,0-8.45,0h-.45a1.46,1.46,0,0,0,.21.22,2.89,2.89,0,0,1,1.08,1.44,8.88,8.88,0,0,1,.32.94,4.26,4.26,0,0,1,.14.7c.06.51.12,1,.15,1.54,0,.7,0,1.4,0,2.1a.9.9,0,0,1-.57.94c-.05,0-.08.11-.12.16ZM50,61.89c0-.1,0-.21,0-.31,0-.46-.07-.92-.09-1.37a5.94,5.94,0,0,0-.3-1.64,1.54,1.54,0,0,0-.52-.81,10.88,10.88,0,0,0-2-1.07c-.33-.15-.67-.27-1-.4l-1.35-.47-.51-.15-1.57-.47c-.31-.09-.62-.15-.93-.22L41,54.83l-.88-.14c-.32-.06-.63-.17-.95-.21a4.32,4.32,0,0,1-1.35-.39A6.94,6.94,0,0,1,36.29,53a8.49,8.49,0,0,1-1.23-1.36,12.78,12.78,0,0,1-.82-1.3c-.25-.44-.49-.89-.7-1.35A1.08,1.08,0,0,1,34,47.47a4.72,4.72,0,0,0,.47-.34,8.77,8.77,0,0,0,1.81-2,15.07,15.07,0,0,0,1-1.66c.32-.62.61-1.26.87-1.91.15-.37.29-.75.45-1.12a13.58,13.58,0,0,0,.7-1.85c.05-.21.13-.42.19-.63s.11-.44.16-.66.1-.61.15-.91.15-.78.2-1.17.08-1,.12-1.49A25.87,25.87,0,0,0,40,31a.67.67,0,0,0,0-.12c-.07-.32-.13-.64-.21-1a11.9,11.9,0,0,0-.3-1.17,12.81,12.81,0,0,0-1.1-2.35,8.89,8.89,0,0,0-2.95-3,9,9,0,0,0-2.89-1.14A9.92,9.92,0,0,0,30.36,22c-.7,0-1.39.06-2.09.11a3.69,3.69,0,0,0-.76.15c-.48.14-1,.29-1.44.47a10.44,10.44,0,0,0-1.19.55,7.16,7.16,0,0,0-1.47,1.08,9.05,9.05,0,0,0-1.19,1.31,10.88,10.88,0,0,0-1,1.61,9.59,9.59,0,0,0-.88,2.31,15.78,15.78,0,0,0-.32,1.63C20,32,20,32.76,20,33.52c0,.38,0,.76.05,1.14s.09,1,.15,1.45c0,.26.08.51.13.76s.14.6.21.89a6.77,6.77,0,0,0,.16.7c.19.56.4,1.11.61,1.67s.34.9.53,1.34.41,1,.64,1.43a11.09,11.09,0,0,0,.61,1.18,14.36,14.36,0,0,0,1.21,1.73A8.27,8.27,0,0,0,25.38,47c.27.22.56.42.84.63a.93.93,0,0,1,.38,1.21,11,11,0,0,1-.86,1.77,10.72,10.72,0,0,1-1.23,1.72,7.22,7.22,0,0,1-1.93,1.61,3.88,3.88,0,0,1-1.17.48c-.31.06-.61.16-.92.21s-.66.1-1,.14h-.06l-1,.23-.7.16-1.29.35-1,.33-.83.28c-.29.09-.58.17-.86.28s-.76.32-1.14.5a9.37,9.37,0,0,0-1.51.84,1.38,1.38,0,0,0-.46.56,6.7,6.7,0,0,0-.46,2.09c0,.45,0,.9-.05,1.35a1.57,1.57,0,0,0,0,.22C10.59,62,49.73,62,50,61.89Zm8-7.94a9.17,9.17,0,0,0,0-.95c-.05-.47-.13-.94-.22-1.41a1.11,1.11,0,0,0-.42-.76A8,8,0,0,0,55.66,50c-.41-.17-.83-.3-1.25-.44l-1-.32L52.7,49a8.87,8.87,0,0,0-1.49-.34l-.12,0-1-.22a5.1,5.1,0,0,1-.76-.15,5.44,5.44,0,0,1-2-1.3,10.11,10.11,0,0,1-1.93-3,1,1,0,0,1,.4-1.28,5.76,5.76,0,0,0,1.39-1.22,10,10,0,0,0,1.19-1.75A13.09,13.09,0,0,0,49.25,38c.11-.31.26-.6.38-.9a12.62,12.62,0,0,0,.48-1.24,14.85,14.85,0,0,0,.36-1.65,8.93,8.93,0,0,0,.13-1.43,11.52,11.52,0,0,0-.1-2.59c-.07-.32-.09-.65-.17-1A8.39,8.39,0,0,0,49.89,28,6.35,6.35,0,0,0,46,24.49c-.31-.09-.64-.15-.94-.26a4.28,4.28,0,0,0-1.23-.2,8.39,8.39,0,0,0-2.79.21q-.67.19-1.3.44a.33.33,0,0,0,0,.1.31.31,0,0,0,0,.1,13,13,0,0,1,1,1.84c.09.2.16.42.25.63.15.36.33.72.44,1.09a9.1,9.1,0,0,1,.37,1.44c.12.83.2,1.66.26,2.5a21.71,21.71,0,0,1-.12,3.2,9.76,9.76,0,0,1-.15,1c-.1.53-.22,1-.33,1.57a11.4,11.4,0,0,1-.29,1.15c-.18.52-.39,1-.59,1.53s-.49,1.27-.75,1.9-.39,1-.63,1.42-.61,1.07-.94,1.6a10.2,10.2,0,0,1-2.47,2.85.2.2,0,0,0-.07.26,8.93,8.93,0,0,0,.42.82,8.38,8.38,0,0,0,1.46,1.81,3.43,3.43,0,0,0,1.36.84c.56.15,1.14.26,1.72.37s.95.15,1.4.28c.19.06.38.08.57.13l.7.2c.23.06.46.09.69.16l1,.33a2.25,2.25,0,0,0,.61.12H58ZM20.44,24.66l-.37-.17a7.69,7.69,0,0,0-1-.27A8,8,0,0,0,17.57,24a10.21,10.21,0,0,0-1.08,0,6.26,6.26,0,0,0-1.13.14,8.25,8.25,0,0,0-1.43.45,6.39,6.39,0,0,0-1.63,1.07,6.89,6.89,0,0,0-1.17,1.39,10.7,10.7,0,0,0-.87,1.71,6,6,0,0,0-.26.88,9.34,9.34,0,0,0-.21,1c-.05.38-.06.78-.08,1.16,0,.21,0,.42,0,.63,0,.4,0,.8.07,1.2a2.85,2.85,0,0,0,0,.36c.11.54.23,1.08.32,1.63a8,8,0,0,0,.5,1.55c.17.43.36.85.52,1.28A12.65,12.65,0,0,0,12,40.19a7.19,7.19,0,0,0,1.2,1.67,5.07,5.07,0,0,0,1,.84,1.08,1.08,0,0,1,.47,1.44l-.19.4a8.73,8.73,0,0,1-2,2.79,4.31,4.31,0,0,1-1.39.88,11.21,11.21,0,0,1-1.49.37c-.31.07-.62.1-.93.15l-.09,0L7.7,49c-.38.09-.76.16-1.13.27-.58.18-1.15.41-1.73.6a11.76,11.76,0,0,0-1.76.78,1.36,1.36,0,0,0-.76,1c-.07.4-.1.81-.14,1.21,0,.15-.05.29-.07.44s0,.41,0,.63l.43,0H14.32a1.5,1.5,0,0,0,.41-.07c.3-.09.6-.2.9-.28s.75-.16,1.11-.29c.17-.06.35-.07.52-.11s.54-.16.82-.22.53-.1.79-.15c.54-.11,1.09-.25,1.63-.33a3.37,3.37,0,0,0,1.64-.74,7.08,7.08,0,0,0,1.61-1.85c.19-.3.35-.62.52-.93s.07-.28-.05-.36A6.32,6.32,0,0,1,23,47.45a13.67,13.67,0,0,1-1.52-2.1A20.13,20.13,0,0,1,20,42.42c-.1-.26-.19-.52-.29-.78s-.32-.74-.46-1.12-.28-.75-.4-1.13-.23-.81-.33-1.22c-.06-.25-.11-.5-.16-.76s-.17-.76-.22-1.14C18.08,35.63,18,35,18,34.36s0-1.4,0-2.09a13.58,13.58,0,0,1,.12-1.46c.06-.45.14-.9.24-1.35a7.18,7.18,0,0,1,.25-.95c.13-.37.32-.71.45-1.08a12.59,12.59,0,0,1,.92-1.94C20.06,25.21,20.24,25,20.44,24.66Z" style="fill:#383839"/><path d="M64,10.12c0,.05-.1.11-.1.16a4.92,4.92,0,0,1-.24,1A7,7,0,0,1,63,12.86a9.27,9.27,0,0,1-2.51,2.78A10.8,10.8,0,0,1,58,17c-.34.14-.69.25-1,.37s-1,.25-1.43.37A12,12,0,0,1,52,18a1,1,0,0,0-.9.35c-.93,1-1.89,1.91-2.84,2.86-.19.19-.37.37-.57.54a1,1,0,0,1-1.5-.14A.86.86,0,0,1,46,21c0-1.14,0-2.28,0-3.42q0-.7,0-1.41c0-.09,0-.18,0-.26a8.06,8.06,0,0,1-1.82-1.55,8.91,8.91,0,0,1-1-1.24,9.14,9.14,0,0,1-.86-1.83,7.54,7.54,0,0,1-.34-3,6.84,6.84,0,0,1,.22-1.11c.07-.29.16-.57.26-.85a7.27,7.27,0,0,1,1.17-2.1,9.35,9.35,0,0,1,2.08-2A11.33,11.33,0,0,1,48,1c.35-.14.72-.24,1.06-.38A8.23,8.23,0,0,1,50.19.31,10.81,10.81,0,0,1,51.66.07a12.31,12.31,0,0,1,2.78,0A12.92,12.92,0,0,1,55.77.3a5.48,5.48,0,0,1,1.17.32,6.25,6.25,0,0,0,.77.26,8.87,8.87,0,0,1,1.73.81,10.35,10.35,0,0,1,1.88,1.4,9.34,9.34,0,0,1,1.4,1.66,7.57,7.57,0,0,1,.73,1.38,5.8,5.8,0,0,1,.42,1.53A.73.73,0,0,0,64,7.9ZM48,18.45l.07,0,.44-.45c.59-.59,1.17-1.18,1.76-1.76a1.31,1.31,0,0,1,.58-.37,2.31,2.31,0,0,1,.92,0,3.08,3.08,0,0,0,.71.08,7.21,7.21,0,0,0,1.69-.09c.32-.08.66,0,1-.12s.68-.16,1-.25a9.5,9.5,0,0,0,2.59-1.2,7.61,7.61,0,0,0,2-1.91,6,6,0,0,0,1-2c.06-.22.07-.45.13-.67a4.18,4.18,0,0,0-.07-1.93,5.48,5.48,0,0,0-.69-1.69,7.08,7.08,0,0,0-1.08-1.38A7.32,7.32,0,0,0,58.31,3.4c-.4-.22-.8-.42-1.22-.6A8.9,8.9,0,0,0,56,2.41a9.94,9.94,0,0,0-1.15-.24A8.49,8.49,0,0,0,53.64,2a6.92,6.92,0,0,0-1.81.08c-.31.08-.64,0-1,.12a8.42,8.42,0,0,0-1.05.26c-.36.14-.73.25-1.09.39a8.12,8.12,0,0,0-2.48,1.55,7,7,0,0,0-1.46,1.79,4.8,4.8,0,0,0-.55,1.36A8.38,8.38,0,0,0,44,8.93a5.51,5.51,0,0,0,.28,1.79,5.74,5.74,0,0,0,1.1,2,7.84,7.84,0,0,0,2.08,1.8,1,1,0,0,1,.54,1c0,.88,0,1.76,0,2.64Q48,18.29,48,18.45Z" style="fill:#383839"/><path d="M48,18.45q0-.16,0-.32c0-.88,0-1.76,0-2.64a1,1,0,0,0-.54-1,7.84,7.84,0,0,1-2.08-1.8,5.74,5.74,0,0,1-1.1-2A5.51,5.51,0,0,1,44,8.93a8.38,8.38,0,0,1,.22-1.32,4.8,4.8,0,0,1,.55-1.36,7,7,0,0,1,1.46-1.79A8.12,8.12,0,0,1,48.72,2.9c.36-.14.73-.25,1.09-.39a8.42,8.42,0,0,1,1.05-.26c.33-.08.66,0,1-.12A6.92,6.92,0,0,1,53.64,2a8.49,8.49,0,0,1,1.18.12A9.94,9.94,0,0,1,56,2.41a8.9,8.9,0,0,1,1.12.4c.41.18.82.38,1.22.6a7.32,7.32,0,0,1,1.75,1.33,7.08,7.08,0,0,1,1.08,1.38,5.48,5.48,0,0,1,.69,1.69,4.18,4.18,0,0,1,.07,1.93c-.06.22-.08.45-.13.67a6,6,0,0,1-1,2,7.61,7.61,0,0,1-2,1.91,9.5,9.5,0,0,1-2.59,1.2c-.34.1-.68.17-1,.25s-.68,0-1,.12a7.21,7.21,0,0,1-1.69.09,3.08,3.08,0,0,1-.71-.08,2.31,2.31,0,0,0-.92,0,1.31,1.31,0,0,0-.58.37c-.6.58-1.18,1.17-1.76,1.76l-.44.45ZM52,9a1,1,0,0,0,1,1,1.1,1.1,0,0,0,1-1,1.09,1.09,0,0,0-1-1A1,1,0,0,0,52,9ZM49,8a1.06,1.06,0,0,0-1,1,1,1,0,0,0,2,0A1,1,0,0,0,49,8Zm7,1a1,1,0,0,0,1,1,1.11,1.11,0,0,0,1-1A1.09,1.09,0,0,0,57,8,1,1,0,0,0,56,9Z" style="fill:#80a6ab"/><path d="M52,9a1,1,0,0,1,1-1,1.09,1.09,0,0,1,1,1,1.1,1.1,0,0,1-1,1A1,1,0,0,1,52,9Z" style="fill:#383839"/><path d="M49,8a1,1,0,0,1,1,1,1,1,0,0,1-2,0A1.06,1.06,0,0,1,49,8Z" style="fill:#383839"/><path d="M56,9a1,1,0,0,1,1-1,1.09,1.09,0,0,1,1,1.06,1.11,1.11,0,0,1-1,1A1,1,0,0,1,56,9Z" style="fill:#383839"/></svg>