<svg id="77e0d211-4e73-47c9-8e31-3f802fe97b6c" data-name="Layer 1" xmlns="http://www.w3.org/2000/svg" viewBox="0 0 64 64"><title>Artboard 1</title><path d="M57.37,25.37a1.05,1.05,0,0,1,0,2.11h-5.9a1.05,1.05,0,0,1,0-2.11Z" style="fill:#404041"/><path d="M54.89,13.21a1.05,1.05,0,0,1-.38,1.44L49.4,17.6a1.05,1.05,0,1,1-1.05-1.82l5.1-2.95A1.05,1.05,0,0,1,54.89,13.21Z" style="fill:#404041"/><path d="M54.5,38.2A1.05,1.05,0,0,1,53.45,40l-5.1-2.95a1.05,1.05,0,1,1,1.05-1.82Z" style="fill:#404041"/><path d="M48.42,26.24a16.28,16.28,0,0,1-3.33,9.92,26.94,26.94,0,0,0-5.6,16.38v6.35A5.12,5.12,0,0,1,34.39,64H29.63a5.12,5.12,0,0,1-5.11-5.11V52.54a27.2,27.2,0,0,0-5.6-16.36,16.42,16.42,0,1,1,29.5-9.94Zm-5,8.64a14.32,14.32,0,0,0-11.62-23A14.4,14.4,0,0,0,17.68,26.11a14.18,14.18,0,0,0,2.92,8.8,29.34,29.34,0,0,1,6,17.23H37.37A29.08,29.08,0,0,1,43.42,34.88Zm-6,24v-.33L26.63,57.32v.85L37.34,59.4A3,3,0,0,0,37.39,58.89Zm0-2.45V54.25H26.63v1Zm-1.32,4.94-9.06-1a3,3,0,0,0,2.63,1.56h4.75A3,3,0,0,0,36.07,61.38Z" style="fill:#404041"/><path d="M45.21,3.54A1.05,1.05,0,0,1,45.6,5l-2.95,5.1A1.05,1.05,0,1,1,40.83,9l2.95-5.1A1.05,1.05,0,0,1,45.21,3.54Z" style="fill:#404041"/><path d="M44.63,26.24c0,.39,0,.79-.05,1.18a1.05,1.05,0,0,1-1,1h-.1a1.05,1.05,0,0,1-1-1.15c0-.33,0-.66,0-1A10.54,10.54,0,0,0,32,15.72a1.05,1.05,0,1,1,0-2.11A12.65,12.65,0,0,1,44.63,26.24Z" style="fill:#404041"/><path d="M43.06,29.85a1.05,1.05,0,0,1,.55,1.38,12.61,12.61,0,0,1-1.54,2.64A1.05,1.05,0,1,1,40.4,32.6a10.57,10.57,0,0,0,1.28-2.2A1.05,1.05,0,0,1,43.06,29.85Z" style="fill:#404041"/><path d="M37.39,58.56v.33a3,3,0,0,1,0,.51L26.63,58.18v-.85Z" style="fill:#7ea8ad"/><polygon points="37.39 54.25 37.39 56.44 26.63 55.2 26.63 54.25 37.39 54.25" style="fill:#7ea8ad"/><path d="M27,60.34l9.06,1a3,3,0,0,1-1.68.52H29.63A3,3,0,0,1,27,60.34Z" style="fill:#7ea8ad"/><path d="M33.05,1.05v5.9a1.05,1.05,0,1,1-2.11,0V1.05a1.05,1.05,0,1,1,2.11,0Z" style="fill:#404041"/><path d="M28.79,42.44a1.05,1.05,0,0,1-.67,1.33,1.07,1.07,0,0,1-.33.05,1.05,1.05,0,0,1-1-.72,31.28,31.28,0,0,0-4.84-9.21A12.79,12.79,0,0,1,20.76,32a1.05,1.05,0,0,1,1.87-1,10.6,10.6,0,0,0,1,1.56A33.41,33.41,0,0,1,28.79,42.44Z" style="fill:#404041"/><path d="M23.17,9a1.05,1.05,0,1,1-1.82,1.05L18.4,5a1.05,1.05,0,0,1,1.82-1.05Z" style="fill:#404041"/><path d="M21.59,27.83A1.05,1.05,0,0,1,20.7,29h-.16a1.05,1.05,0,0,1-1-.9,12.81,12.81,0,0,1-.14-2,1.05,1.05,0,0,1,2.11,0A10.8,10.8,0,0,0,21.59,27.83Z" style="fill:#404041"/><path d="M15.66,15.78A1.05,1.05,0,0,1,14.6,17.6L9.5,14.65a1.05,1.05,0,1,1,1.05-1.82Z" style="fill:#404041"/><path d="M16,35.64a1.05,1.05,0,0,1-.38,1.44L10.55,40A1.05,1.05,0,1,1,9.5,38.2l5.1-2.95A1.05,1.05,0,0,1,16,35.64Z" style="fill:#404041"/><path d="M12.52,25.37a1.05,1.05,0,0,1,0,2.11H6.63a1.05,1.05,0,0,1,0-2.11Z" style="fill:#404041"/></svg>