<svg id="693e75e1-8bed-48a6-a750-6a5d7adeacb4" data-name="Layer 1" xmlns="http://www.w3.org/2000/svg" viewBox="0 0 64 64"><title>Artboard 1</title><path d="M50.1,6.73c0-.08-1.07-4.16-1.55-6.17-.1-.4-.23-.56-.68-.56-2.56,0-27,0-31.75,0a.48.48,0,0,0-.56.44c-.48,2-1,3.93-1.44,5.89-.07.29-.18.4-.5.4-1.71,0-3.42,0-5.12,0H8C8,7,8,15.58,8,15.73h3.38c.21,0,.33,0,.36.28.13,1.46,4.36,44.48,4.66,47.43.05.55,0,.55.62.55,5.62,0,25.65,0,30,0,.39,0,.49-.13.52-.49C47.85,61.09,52,19,52.27,16.29c.05-.55,0-.56.62-.56H56v-9ZM17.39,2.22h29.3L47.8,6.7c-.21,0-31.38,0-31.53,0ZM45.62,61.85H18.45L16.64,43.76H47.41Zm-13.9-23.5c0,.09.06.18.13.41a7.82,7.82,0,0,1-1.15-.33,4.59,4.59,0,0,1-2.56-3.56,5.52,5.52,0,0,1,1.69-5.45,3.18,3.18,0,0,1,2-.82c0,.53.06,1,.12,1.55a7.89,7.89,0,0,1-.45,3.19A7.59,7.59,0,0,0,31.73,38.35Zm.93-9.18a4.15,4.15,0,0,0-.17-.51,2.54,2.54,0,0,1,1.65.67,5.87,5.87,0,0,1,.43,8.25,3.39,3.39,0,0,1-2.17,1.08,20.65,20.65,0,0,1-.08-2.55c.08-1,.34-1.93.51-2.9.07-.4.08-.81.12-1.21a1.86,1.86,0,0,0-.08-1.5C32.8,30.05,32.74,29.61,32.66,29.17Zm16.8-6.06c0,.35-.14.46-.5.46-2.72,0-30.55,0-33.82,0-.38,0-.49-.12-.53-.48-.17-1.85-.64-6.7-.68-7.33H50.16C50.1,16.59,49.47,22.74,49.46,23.11Zm4.39-9.59H10.21c0-.17,0-4.45,0-4.62h43.6Z" style="fill:#fff"/></svg>