<svg id="b36cee86-d94e-442c-a46c-2c00af6ad3e3" data-name="Layer 1" xmlns="http://www.w3.org/2000/svg" viewBox="0 0 64 64"><title>Artboard 1</title><path d="M29.59,0h4.8c1.18.18,2.36.32,3.53.54A32,32,0,1,1,.81,39.17C.46,37.6.26,36,0,34.4Q0,32,0,29.6c.05-.23.11-.46.15-.69a47.85,47.85,0,0,1,1-5.31C4.94,11.1,13.26,3.44,26,.56,27.18.3,28.39.18,29.59,0ZM32,5.14A26.85,26.85,0,1,0,58.83,32,27,27,0,0,0,32,5.14Z" style="fill:#fff"/><path d="M27,18.52A59.13,59.13,0,0,1,44.7,20.83c1.44.45,2.86,1,4.25,1.6a2.58,2.58,0,1,1-2.06,4.73,44.34,44.34,0,0,0-15.26-3.34,83.08,83.08,0,0,0-13.72.35c-.42,0-.84.14-1.27.15a2.51,2.51,0,0,1-2.57-2.24,2.43,2.43,0,0,1,2.08-2.84c2.94-.31,5.88-.49,8.83-.71C25.64,18.48,26.31,18.52,27,18.52Z" style="fill:#fff"/><path d="M27,33.58l-8.83.66a2.58,2.58,0,1,1-.52-5.12,71,71,0,0,1,16.09-.29A41.77,41.77,0,0,1,46.8,32a2.6,2.6,0,1,1-1.9,4.82,68,68,0,0,0-6.75-2.1A55.56,55.56,0,0,0,27,33.58Z" style="fill:#fff"/><path d="M26.54,38.42A40.4,40.4,0,0,1,42.67,40.8a14.17,14.17,0,0,1,1.54.66,2.57,2.57,0,0,1,1.18,3.41A2.63,2.63,0,0,1,42,46.12a53.83,53.83,0,0,0-5.69-1.79,45.56,45.56,0,0,0-13.09-.85c-1.49.1-3,.25-4.45.37a2.52,2.52,0,0,1-3-2.36,2.58,2.58,0,0,1,2.48-2.76c.92-.1,1.85-.27,2.78-.3C22.87,38.38,24.71,38.42,26.54,38.42Z" style="fill:#fff"/></svg>