<svg id="c1c710c5-cba3-4d05-af14-2b499b7e866a" data-name="Layer 1" xmlns="http://www.w3.org/2000/svg" viewBox="0 0 64 64"><title>Artboard 1</title><path d="M63.48,30.92A.83.83,0,0,1,63,30.4a30.93,30.93,0,0,0-1.91-4.07.64.64,0,0,1-.07-.31c0-.42,0-.85,0-1.27,0-.27,0-.53,0-.8a35.18,35.18,0,0,0-.27-6,1,1,0,0,0-1.12-1,9.79,9.79,0,0,1-4.81-1.31,2,2,0,0,0-2-.12,14.7,14.7,0,0,1-4.21,1,5.15,5.15,0,0,1-2.5-.32,1.47,1.47,0,0,0-.7-.06h-.1a2.84,2.84,0,0,0-.41.06l-.25,0A5,5,0,0,1,41,15.51a1.55,1.55,0,0,0-.68-.22l-.74-.08c-.38,0-.77-.08-1.14-.15a18.62,18.62,0,0,1-5.64-2.27.58.58,0,0,1-.34-.62c0-3.34,0-6.67,0-10a1,1,0,0,0-1.06-1H18a.81.81,0,0,0-.9.9L17,26.87c0,.06,0,.13,0,.17h-.19L1.5,27c-.24,0-.48,0-.72,0a.84.84,0,0,0-.69.4.8.8,0,0,0,0,.77A13.08,13.08,0,0,0,.8,29.42a14.2,14.2,0,0,0,4.94,5,3.64,3.64,0,0,1,.47.34A3.94,3.94,0,0,1,7.71,37,19.35,19.35,0,0,0,9,40.73a7.7,7.7,0,0,0,3.46,3.68,15.52,15.52,0,0,0,3.56,1.43,1,1,0,0,0,1.41-.69,7.69,7.69,0,0,1,1.45-2.34,4.11,4.11,0,0,1,3.41-1.45,6.81,6.81,0,0,1,2.77.82.71.71,0,0,1,.19.16l.55.66c.52.62,1,1.27,1.55,1.92A8,8,0,0,1,29,48.25a4.94,4.94,0,0,0,1,2,17.63,17.63,0,0,0,3.42,3.42,1,1,0,0,1,.38.52,27.71,27.71,0,0,0,1.8,4.26,7,7,0,0,0,4.74,3.76,21.83,21.83,0,0,0,4.49.61l1,0,.76,0a.91.91,0,0,0,.71-.31.86.86,0,0,0,.13-.72,14.46,14.46,0,0,0-.53-2l-.22-.62a11.1,11.1,0,0,1-.73-2.73.46.46,0,0,1,0-.17,9.1,9.1,0,0,0,1.38-3.55,1.25,1.25,0,0,0-.13-1,1.6,1.6,0,0,0,.27-.13,4,4,0,0,0,.68-.53,3.48,3.48,0,0,0,.29-.34,1.82,1.82,0,0,1,.35-.38,9.6,9.6,0,0,1,.84-.53c.23-.13.46-.27.68-.41l.06,0a2,2,0,0,0,1-1.15,1.56,1.56,0,0,0,1.3-.3,28.14,28.14,0,0,0,3.9-3.06A9.21,9.21,0,0,0,58.22,43a1.07,1.07,0,0,0,.17-.8l.08,0a1,1,0,0,0,.8-.22,3.45,3.45,0,0,1,.82-.52c.61-.24,1.24-.45,1.86-.66l.44-.15a1.08,1.08,0,0,0,.83-1.08c0-.13,0-.26,0-.4a4.66,4.66,0,0,1,0-.6q.22-1.94.45-3.87L64,32A1,1,0,0,0,63.48,30.92Zm-1.87,8.2a.26.26,0,0,1,0,.09.31.31,0,0,1-.12.06l-.44.15a17.1,17.1,0,0,0-1.84.71c-.36.17-.48.16-.7-.06a2.5,2.5,0,0,0-.83-.48l-.09,0a1,1,0,0,0-.84,0,1,1,0,0,0-.52.68,2.37,2.37,0,0,0,.4,2.28l-.08.1a5.76,5.76,0,0,1-.45.51,30,30,0,0,1-4.19,3.42.47.47,0,0,1-.49.07,2.84,2.84,0,0,0-1-.13.92.92,0,0,0-.76.39,1,1,0,0,0-.07.91c0,.09.08.19.09.17a1.33,1.33,0,0,1-.18.12l-.6.35-.42.24a4.42,4.42,0,0,0-1.66,1.51.49.49,0,0,1-.17.09,3.17,3.17,0,0,0-1.36,1,1.86,1.86,0,0,0-.22.37.86.86,0,0,0,0,.74.82.82,0,0,0,.55.44l.1,0a.35.35,0,0,1,0,.09l-.3.83c-.16.44-.32.87-.49,1.31a1.17,1.17,0,0,1-.24.35,1.4,1.4,0,0,0-.33,1.11,12.34,12.34,0,0,0,.86,3.36c.14.37.27.75.4,1.13l.12.35a20.94,20.94,0,0,1-5.11-.63A5.19,5.19,0,0,1,37.09,58l-.15-.3c-.38-.74-.77-1.5-1.1-2.27A14.15,14.15,0,0,1,35.32,54l-.15-.45a1.79,1.79,0,0,0-.63-.89,16.22,16.22,0,0,1-3.37-3.35,3.44,3.44,0,0,1-.62-1.33,10.74,10.74,0,0,0-2.3-4.48c-.67-.85-1.23-1.52-1.76-2.12a2.83,2.83,0,0,0-.8-.62,7.88,7.88,0,0,0-2.84-.88,6.93,6.93,0,0,0-.78,0,5.69,5.69,0,0,0-2,.36A5.94,5.94,0,0,0,17.53,42a8.91,8.91,0,0,0-1.35,2.2l0,.06-.07,0a11.61,11.61,0,0,1-4.39-2.32,5,5,0,0,1-1.08-1.59l-.15-.3a14.13,14.13,0,0,1-1.2-3.29,5.58,5.58,0,0,0-2.66-3.58A13.32,13.32,0,0,1,2.15,28.6l14,0h1.44a1,1,0,0,0,1.08-1.07c0-.25,0-.49,0-.74v-.47l0-8.73q0-2.52,0-5,0-3.94,0-7.87v-2H30.9V5.44q0,3.59,0,7.17a1.36,1.36,0,0,0,.7,1.29,20.39,20.39,0,0,0,6.52,2.7c.42.09.85.13,1.27.18l.68.08a.62.62,0,0,1,.19,0,6.28,6.28,0,0,0,4.41.94,4.7,4.7,0,0,1,1.88.1,7.63,7.63,0,0,0,3.77,0c.72-.16,1.44-.37,2.14-.57L53.72,17A.42.42,0,0,1,54,17a12.46,12.46,0,0,0,5.12,1.53c.11,0,.22,0,.21,0a1.58,1.58,0,0,1,0,.28,36.88,36.88,0,0,1,.17,5.63l0,.59c0,.41,0,.83,0,1.24a1.27,1.27,0,0,0,.16.63,28.07,28.07,0,0,1,1.92,4,2.63,2.63,0,0,0,.8,1.21q-.21,1.88-.43,3.76l-.29,2.52A3.06,3.06,0,0,0,61.61,39.13Z" style="fill:#fff"/></svg>