<svg id="20ecea8d-42db-4f85-b4d7-9748e6693b25" data-name="Layer 1" xmlns="http://www.w3.org/2000/svg" viewBox="0 0 64 64"><title>Artboard 1</title><path d="M64,1V64H1a1.84,1.84,0,0,1-.89-1.76Q.14,32,.13,1.86C.13.52.53.12,1.87.12q30.18,0,60.37,0A1.85,1.85,0,0,1,64,1ZM2.84,50.63H61.29V13.49H2.84Zm0-39.94H61.27V2.83H2.83ZM61.28,53.42H2.85v7.86H61.28Z" style="fill:#fff"/><path d="M64,1A1.85,1.85,0,0,0,62.24.1Q32.05.13,1.87.12C.53.12.13.52.13,1.86q0,30.18,0,60.37A1.84,1.84,0,0,0,1,64H0Q0,32,0,0H64Z" style="fill:#fff"/><path d="M21.4,32.05q0-6,0-12c0-1.1.65-1.73,1.6-1.55a2.1,2.1,0,0,1,.72.34l18.2,12a1.36,1.36,0,0,1,0,2.5l-18.24,12a1.46,1.46,0,0,1-1.52.19,1.38,1.38,0,0,1-.75-1.39Q21.4,38.1,21.4,32.05Zm2.7,9.8,14.84-9.79L24.1,22.27Z" style="fill:#fff"/><path d="M38.69,8.1c-.46,0-.91,0-1.37,0a1.31,1.31,0,0,1-1.27-1.21,1.25,1.25,0,0,1,1.1-1.41,25.9,25.9,0,0,1,3.1,0A1.28,1.28,0,0,1,41.4,6.81a1.34,1.34,0,0,1-1.28,1.28C39.64,8.11,39.17,8.1,38.69,8.1Z" style="fill:#fff"/><path d="M22.76,8.1c-.46,0-.91,0-1.37,0a1.29,1.29,0,0,1-1.3-1.24,1.25,1.25,0,0,1,1.19-1.4,28.77,28.77,0,0,1,3,0,1.3,1.3,0,0,1,1.17,1.37,1.34,1.34,0,0,1-1.3,1.26C23.67,8.11,23.21,8.1,22.76,8.1Z" style="fill:#fff"/><path d="M46.67,8.1c-.46,0-.91,0-1.37,0A1.29,1.29,0,0,1,44,6.82,1.23,1.23,0,0,1,45.2,5.46a29.09,29.09,0,0,1,3,0,1.3,1.3,0,0,1,1.2,1.35A1.35,1.35,0,0,1,48,8.1C47.59,8.11,47.13,8.1,46.67,8.1Z" style="fill:#fff"/><path d="M54.7,8.1c-.48,0-1,0-1.43,0A1.29,1.29,0,0,1,52,6.86a1.24,1.24,0,0,1,1.12-1.39,27.61,27.61,0,0,1,3,0,1.29,1.29,0,0,1,1.18,1.36,1.34,1.34,0,0,1-1.3,1.26C55.61,8.11,55.16,8.1,54.7,8.1Z" style="fill:#fff"/><path d="M30.73,8.1c-.46,0-.91,0-1.37,0a1.3,1.3,0,0,1-1.29-1.25,1.24,1.24,0,0,1,1.14-1.38,26.74,26.74,0,0,1,3,0,1.3,1.3,0,0,1,1.16,1.39A1.35,1.35,0,0,1,32.1,8.1C31.64,8.11,31.18,8.1,30.73,8.1Z" style="fill:#fff"/><path d="M14.74,8.1c-.46,0-.91,0-1.37,0A1.29,1.29,0,0,1,12.1,6.83a1.24,1.24,0,0,1,1.15-1.36,28.82,28.82,0,0,1,3,0,1.3,1.3,0,0,1,1.2,1.34A1.34,1.34,0,0,1,16.11,8.1C15.66,8.11,15.2,8.1,14.74,8.1Z" style="fill:#fff"/><path d="M6.76,8.1c-.46,0-.91,0-1.37,0A1.29,1.29,0,0,1,4.12,6.82,1.23,1.23,0,0,1,5.28,5.47a29,29,0,0,1,3,0,1.29,1.29,0,0,1,1.2,1.35A1.35,1.35,0,0,1,8.12,8.1C7.67,8.11,7.21,8.1,6.76,8.1Z" style="fill:#fff"/><path d="M38.74,56c.46,0,.91,0,1.37,0a1.33,1.33,0,0,1,1.29,1.27,1.3,1.3,0,0,1-1.18,1.36,29,29,0,0,1-3,0,1.25,1.25,0,0,1-1.17-1.41A1.29,1.29,0,0,1,37.37,56C37.83,56,38.28,56,38.74,56Z" style="fill:#fff"/><path d="M6.8,56c.46,0,.91,0,1.37,0a1.34,1.34,0,0,1,1.29,1.26,1.28,1.28,0,0,1-1.18,1.36,28,28,0,0,1-3,0,1.23,1.23,0,0,1-1.12-1.39A1.29,1.29,0,0,1,5.37,56C5.84,56,6.32,56,6.8,56Z" style="fill:#fff"/><path d="M14.77,56c.46,0,.91,0,1.37,0a1.34,1.34,0,0,1,1.31,1.25,1.3,1.3,0,0,1-1.16,1.38,28.35,28.35,0,0,1-3,0,1.23,1.23,0,0,1-1.13-1.38A1.29,1.29,0,0,1,13.4,56C13.86,56,14.31,56,14.77,56Z" style="fill:#fff"/><path d="M22.78,56c.44,0,.87,0,1.31,0a1.36,1.36,0,0,1,1.34,1.28,1.31,1.31,0,0,1-1.2,1.35,26.9,26.9,0,0,1-3,0,1.25,1.25,0,0,1-1.16-1.42A1.31,1.31,0,0,1,21.42,56C21.87,56,22.33,56,22.78,56Z" style="fill:#fff"/><path d="M30.73,56c.48,0,1,0,1.43,0a1.33,1.33,0,0,1,1.25,1.24,1.28,1.28,0,0,1-1.1,1.36,28,28,0,0,1-3.17,0,1.24,1.24,0,0,1-1.07-1.37A1.29,1.29,0,0,1,29.3,56c.48,0,1,0,1.43,0Z" style="fill:#fff"/><path d="M46.67,58.67c-.46,0-.91,0-1.37,0A1.33,1.33,0,0,1,45.39,56Q46.7,56,48,56a1.32,1.32,0,1,1,.1,2.65C47.63,58.69,47.15,58.67,46.67,58.67Z" style="fill:#fff"/><path d="M54.69,56c.46,0,.91,0,1.37,0a1.35,1.35,0,0,1,1.32,1.31,1.32,1.32,0,0,1-1.22,1.33c-1,0-1.91,0-2.86,0A1.27,1.27,0,0,1,52,57.26,1.3,1.3,0,0,1,53.38,56Z" style="fill:#fff"/></svg>